{
DisplayStrings = (
Lawnmower,
"nipolkwm/w.001 up"
);
date = "2015-10-15 14:20:12 +0000";
designer = "Mirco Monsees";
designerURL = mircomonsees.com;
familyName = "Project Gin";
fontMaster = (
{
alignmentZones = (
"{480, 5}",
"{105, -15}",
"{0, -5}"
);
ascender = 740;
capHeight = 700;
descender = -250;
id = "71FD7A9F-05F5-4D76-8D4F-547475A05E4C";
italicAngle = 6;
userData = {
GSCornerRadius = 6;
};
xHeight = 480;
}
);
glyphs = (
{
glyphname = C;
lastChange = "2015-11-06 20:50:14 +0000";
layers = (
{
background = {
paths = (
{
closed = 1;
nodes = (
"533 658 OFFCURVE",
"438 737 OFFCURVE",
"285 694 CURVE SMOOTH",
"28 620 OFFCURVE",
"-43 281 OFFCURVE",
"115 84 CURVE SMOOTH",
"161 26 OFFCURVE",
"277 -37 OFFCURVE",
"410 5 CURVE SMOOTH",
"633 69 OFFCURVE",
"739 409 OFFCURVE",
"577 605 CURVE SMOOTH"
);
},
{
closed = 1;
nodes = (
"378 81 LINE",
"378 81 OFFCURVE",
"287 42 OFFCURVE",
"220 172 CURVE SMOOTH",
"154 304 OFFCURVE",
"176 534 OFFCURVE",
"311 618 CURVE",
"311 618 LINE",
"311 618 OFFCURVE",
"401 653 OFFCURVE",
"467 521 CURVE SMOOTH",
"533 390 OFFCURVE",
"512 166 OFFCURVE",
"378 81 CURVE"
);
}
);
};
layerId = "71FD7A9F-05F5-4D76-8D4F-547475A05E4C";
name = "Regular Italic";
paths = (
{
closed = 1;
nodes = (
"502 21 OFFCURVE",
"409 -8 OFFCURVE",
"318 -8 CURVE SMOOTH",
"208 -8 OFFCURVE",
"70 56 OFFCURVE",
"37 245 CURVE SMOOTH",
"-9 520 OFFCURVE",
"182 706 OFFCURVE",
"369 706 CURVE SMOOTH",
"475 706 OFFCURVE",
"572 668 OFFCURVE",
"601 632 CURVE",
"587 578 OFFCURVE",
"574 533 OFFCURVE",
"564 482 CURVE SMOOTH",
"562 473 OFFCURVE",
"521 471 OFFCURVE",
"521 478 CURVE SMOOTH",
"520 485 OFFCURVE",
"529 605 OFFCURVE",
"331 628 CURVE",
"260 600 OFFCURVE",
"165 467 OFFCURVE",
"195 270 CURVE SMOOTH",
"211 165 OFFCURVE",
"300 72 OFFCURVE",
"394 77 CURVE SMOOTH",
"449 80 OFFCURVE",
"501 111 OFFCURVE",
"528 152 CURVE",
"566 122 LINE"
);
}
);
width = 600;
}
);
unicode = 0043;
},
{
glyphname = E;
lastChange = "2015-11-06 19:25:59 +0000";
layers = (
{
background = {
paths = (
{
closed = 1;
nodes = (
"499 162 OFFCURVE",
"460 171 OFFCURVE",
"455 169 CURVE SMOOTH",
"452 166 OFFCURVE",
"442 89 OFFCURVE",
"380 67 CURVE SMOOTH",
"336 54 OFFCURVE",
"280 51 OFFCURVE",
"229 54 CURVE",
"211 143 OFFCURVE",
"222 278 OFFCURVE",
"239 433 CURVE SMOOTH",
"247 505 OFFCURVE",
"260 623 OFFCURVE",
"289 646 CURVE SMOOTH",
"306 659 OFFCURVE",
"317 652 OFFCURVE",
"324 659 CURVE SMOOTH",
"330 667 OFFCURVE",
"333 700 OFFCURVE",
"324 700 CURVE SMOOTH",
"243 698 OFFCURVE",
"218 698 OFFCURVE",
"182 698 CURVE SMOOTH",
"151 698 OFFCURVE",
"121 700 OFFCURVE",
"79 701 CURVE SMOOTH",
"70 701 OFFCURVE",
"64 669 OFFCURVE",
"71 661 CURVE SMOOTH",
"75 654 OFFCURVE",
"91 656 OFFCURVE",
"106 643 CURVE SMOOTH",
"132 619 OFFCURVE",
"120 510 OFFCURVE",
"110 418 CURVE SMOOTH",
"97 299 OFFCURVE",
"66 96 OFFCURVE",
"68 82 CURVE SMOOTH",
"72 71 OFFCURVE",
"83 62 OFFCURVE",
"119 46 CURVE",
"92 46 OFFCURVE",
"17 49 OFFCURVE",
"12 47 CURVE SMOOTH",
"5 43 OFFCURVE",
"1 1 OFFCURVE",
"9 0 CURVE",
"116 2 OFFCURVE",
"256 1 OFFCURVE",
"286 0 CURVE SMOOTH",
"394 -2 OFFCURVE",
"477 -5 OFFCURVE",
"476 0 CURVE",
"486 83 OFFCURVE",
"502 149 OFFCURVE",
"501 155 CURVE SMOOTH"
);
}
);
};
layerId = "71FD7A9F-05F5-4D76-8D4F-547475A05E4C";
name = "Regular Italic";
paths = (
{
closed = 1;
nodes = (
"528 705 OFFCURVE",
"338 697 OFFCURVE",
"83 700 CURVE SMOOTH",
"73 700 OFFCURVE",
"67 666 OFFCURVE",
"74 658 CURVE SMOOTH",
"78 651 OFFCURVE",
"124 649 OFFCURVE",
"125 616 CURVE SMOOTH",
"127 576 OFFCURVE",
"120 484 OFFCURVE",
"114 427 CURVE SMOOTH",
"101 299 OFFCURVE",
"68 98 OFFCURVE",
"70 85 CURVE SMOOTH",
"72 73 OFFCURVE",
"84 67 OFFCURVE",
"120 50 CURVE",
"93 51 OFFCURVE",
"23 54 OFFCURVE",
"17 51 CURVE SMOOTH",
"10 49 OFFCURVE",
"3 -1 OFFCURVE",
"10 0 CURVE",
"60 1 OFFCURVE",
"119 1 OFFCURVE",
"158 1 CURVE",
"158 1 OFFCURVE",
"158 1 OFFCURVE",
"158 1 CURVE",
"167 1 OFFCURVE",
"175 1 OFFCURVE",
"185 1 CURVE SMOOTH",
"202 1 OFFCURVE",
"219 0 OFFCURVE",
"235 0 CURVE SMOOTH",
"378 -1 OFFCURVE",
"492 -8 OFFCURVE",
"490 -1 CURVE",
"500 90 OFFCURVE",
"515 152 OFFCURVE",
"512 158 CURVE SMOOTH",
"511 165 OFFCURVE",
"471 175 OFFCURVE",
"468 173 CURVE SMOOTH",
"464 169 OFFCURVE",
"457 95 OFFCURVE",
"393 74 CURVE SMOOTH",
"354 61 OFFCURVE",
"291 58 OFFCURVE",
"244 59 CURVE",
"215 92 OFFCURVE",
"222 230 OFFCURVE",
"233 333 CURVE",
"250 336 OFFCURVE",
"268 337 OFFCURVE",
"290 337 CURVE SMOOTH",
"368 337 OFFCURVE",
"343 277 OFFCURVE",
"349 274 CURVE SMOOTH",
"354 272 OFFCURVE",
"389 270 OFFCURVE",
"389 276 CURVE SMOOTH",
"390 284 OFFCURVE",
"392 289 OFFCURVE",
"394 331 CURVE SMOOTH",
"395 353 OFFCURVE",
"396 366 OFFCURVE",
"396 375 CURVE SMOOTH",
"395 381 OFFCURVE",
"396 407 OFFCURVE",
"386 410 CURVE SMOOTH",
"375 413 OFFCURVE",
"353 406 OFFCURVE",
"288 404 CURVE SMOOTH",
"270 403 OFFCURVE",
"254 404 OFFCURVE",
"241 403 CURVE",
"242 418 OFFCURVE",
"244 430 OFFCURVE",
"245 441 CURVE SMOOTH",
"256 545 OFFCURVE",
"265 605 OFFCURVE",
"275 641 CURVE",
"295 641 OFFCURVE",
"332 641 OFFCURVE",
"363 641 CURVE SMOOTH",
"457 640 OFFCURVE",
"481 580 OFFCURVE",
"496 531 CURVE SMOOTH",
"497 527 OFFCURVE",
"535 537 OFFCURVE",
"537 543 CURVE SMOOTH",
"538 549 OFFCURVE",
"533 625 OFFCURVE",
"528 699 CURVE"
);
}
);
width = 553;
}
);
leftMetricsKey = I;
unicode = 0045;
},
{
glyphname = F;
lastChange = "2015-11-02 18:35:39 +0000";
layers = (
{
background = {
paths = (
{
closed = 1;
nodes = (
"529 705 OFFCURVE",
"470 702 OFFCURVE",
"291 699 CURVE",
"291 699 LINE",
"226 698 OFFCURVE",
"184 698 OFFCURVE",
"84 700 CURVE SMOOTH",
"74 700 OFFCURVE",
"68 666 OFFCURVE",
"75 658 CURVE SMOOTH",
"79 651 OFFCURVE",
"125 649 OFFCURVE",
"126 616 CURVE SMOOTH",
"128 576 OFFCURVE",
"121 484 OFFCURVE",
"115 427 CURVE SMOOTH",
"102 299 OFFCURVE",
"69 91 OFFCURVE",
"71 78 CURVE SMOOTH",
"73 66 OFFCURVE",
"85 60 OFFCURVE",
"121 43 CURVE",
"94 44 OFFCURVE",
"24 47 OFFCURVE",
"18 44 CURVE SMOOTH",
"11 42 OFFCURVE",
"6 -1 OFFCURVE",
"13 0 CURVE",
"63 1 OFFCURVE",
"120 1 OFFCURVE",
"159 1 CURVE",
"159 1 OFFCURVE",
"159 1 OFFCURVE",
"159 1 CURVE",
"168 1 OFFCURVE",
"176 1 OFFCURVE",
"186 1 CURVE SMOOTH",
"203 1 OFFCURVE",
"220 0 OFFCURVE",
"236 0 CURVE SMOOTH",
"379 -1 OFFCURVE",
"493 -8 OFFCURVE",
"491 -1 CURVE",
"501 82 OFFCURVE",
"517 148 OFFCURVE",
"514 154 CURVE SMOOTH",
"513 161 OFFCURVE",
"473 171 OFFCURVE",
"470 169 CURVE SMOOTH",
"466 165 OFFCURVE",
"458 88 OFFCURVE",
"394 67 CURVE SMOOTH",
"355 54 OFFCURVE",
"292 51 OFFCURVE",
"245 52 CURVE",
"216 85 OFFCURVE",
"222 215 OFFCURVE",
"233 326 CURVE",
"250 326 OFFCURVE",
"268 327 OFFCURVE",
"290 327 CURVE SMOOTH",
"368 327 OFFCURVE",
"344 278 OFFCURVE",
"350 275 CURVE SMOOTH",
"355 273 OFFCURVE",
"390 271 OFFCURVE",
"390 277 CURVE SMOOTH",
"391 285 OFFCURVE",
"393 290 OFFCURVE",
"395 331 CURVE SMOOTH",
"397 353 OFFCURVE",
"397 366 OFFCURVE",
"397 375 CURVE SMOOTH",
"396 381 OFFCURVE",
"397 404 OFFCURVE",
"387 407 CURVE SMOOTH",
"376 410 OFFCURVE",
"354 406 OFFCURVE",
"289 404 CURVE SMOOTH",
"271 403 OFFCURVE",
"255 404 OFFCURVE",
"242 403 CURVE",
"243 418 OFFCURVE",
"245 430 OFFCURVE",
"246 441 CURVE SMOOTH",
"257 545 OFFCURVE",
"266 605 OFFCURVE",
"276 641 CURVE",
"296 641 OFFCURVE",
"333 641 OFFCURVE",
"364 641 CURVE SMOOTH",
"458 640 OFFCURVE",
"482 580 OFFCURVE",
"497 531 CURVE SMOOTH",
"498 527 OFFCURVE",
"536 537 OFFCURVE",
"538 543 CURVE SMOOTH",
"539 549 OFFCURVE",
"534 625 OFFCURVE",
"529 699 CURVE"
);
}
);
};
layerId = "71FD7A9F-05F5-4D76-8D4F-547475A05E4C";
name = "Regular Italic";
paths = (
{
closed = 1;
nodes = (
"520 707 OFFCURVE",
"337 700 OFFCURVE",
"83 700 CURVE SMOOTH",
"74 700 OFFCURVE",
"68 665 OFFCURVE",
"73 658 CURVE SMOOTH",
"78 651 OFFCURVE",
"127 649 OFFCURVE",
"128 615 CURVE SMOOTH",
"129 576 OFFCURVE",
"121 484 OFFCURVE",
"115 426 CURVE SMOOTH",
"99 263 OFFCURVE",
"67 78 OFFCURVE",
"67 78 CURVE SMOOTH",
"68 67 OFFCURVE",
"81 61 OFFCURVE",
"115 43 CURVE",
"87 45 OFFCURVE",
"18 45 OFFCURVE",
"11 43 CURVE SMOOTH",
"3 40 OFFCURVE",
"-3 0 OFFCURVE",
"6 0 CURVE",
"128 3 OFFCURVE",
"288 0 OFFCURVE",
"304 0 CURVE",
"314 1 OFFCURVE",
"315 42 OFFCURVE",
"311 44 CURVE SMOOTH",
"307 47 OFFCURVE",
"271 45 OFFCURVE",
"257 45 CURVE SMOOTH",
"207 45 OFFCURVE",
"222 200 OFFCURVE",
"233 327 CURVE",
"250 327 OFFCURVE",
"266 327 OFFCURVE",
"284 327 CURVE SMOOTH",
"362 327 OFFCURVE",
"336 269 OFFCURVE",
"343 265 CURVE SMOOTH",
"347 264 OFFCURVE",
"381 261 OFFCURVE",
"382 268 CURVE SMOOTH",
"382 276 OFFCURVE",
"384 280 OFFCURVE",
"387 322 CURVE SMOOTH",
"389 344 OFFCURVE",
"389 355 OFFCURVE",
"389 365 CURVE SMOOTH",
"389 371 OFFCURVE",
"389 399 OFFCURVE",
"381 404 CURVE SMOOTH",
"373 408 OFFCURVE",
"349 398 OFFCURVE",
"282 398 CURVE SMOOTH",
"267 398 OFFCURVE",
"254 398 OFFCURVE",
"242 398 CURVE",
"256 535 OFFCURVE",
"263 592 OFFCURVE",
"278 642 CURVE",
"299 641 OFFCURVE",
"326 641 OFFCURVE",
"357 641 CURVE SMOOTH",
"446 641 OFFCURVE",
"472 580 OFFCURVE",
"485 531 CURVE SMOOTH",
"486 526 OFFCURVE",
"529 536 OFFCURVE",
"530 542 CURVE SMOOTH",
"531 549 OFFCURVE",
"525 628 OFFCURVE",
"521 701 CURVE"
);
}
);
width = 523;
}
);
leftMetricsKey = I;
rightMetricsKey = "=E-5";
unicode = 0046;
},
{
glyphname = G;
lastChange = "2015-11-02 18:36:57 +0000";
layers = (
{
background = {
paths = (
{
closed = 1;
nodes = (
"502 21 OFFCURVE",
"409 -8 OFFCURVE",
"318 -8 CURVE SMOOTH",
"208 -8 OFFCURVE",
"70 56 OFFCURVE",
"37 245 CURVE SMOOTH",
"-9 520 OFFCURVE",
"182 706 OFFCURVE",
"369 706 CURVE SMOOTH",
"475 706 OFFCURVE",
"575 668 OFFCURVE",
"604 632 CURVE",
"593 577 OFFCURVE",
"578 532 OFFCURVE",
"567 482 CURVE SMOOTH",
"565 473 OFFCURVE",
"524 471 OFFCURVE",
"524 478 CURVE SMOOTH",
"523 485 OFFCURVE",
"532 605 OFFCURVE",
"331 628 CURVE",
"260 600 OFFCURVE",
"162 467 OFFCURVE",
"195 270 CURVE SMOOTH",
"213 165 OFFCURVE",
"310 71 OFFCURVE",
"399 76 CURVE SMOOTH",
"454 79 OFFCURVE",
"501 111 OFFCURVE",
"528 152 CURVE",
"566 122 LINE"
);
}
);
};
layerId = "71FD7A9F-05F5-4D76-8D4F-547475A05E4C";
name = "Regular Italic";
paths = (
{
closed = 1;
nodes = (
"182 708 OFFCURVE",
"-9 510 OFFCURVE",
"41 244 CURVE SMOOTH",
"76 56 OFFCURVE",
"183 11 OFFCURVE",
"293 -4 CURVE SMOOTH",
"388 -17 OFFCURVE",
"500 15 OFFCURVE",
"555 53 CURVE",
"556 130 OFFCURVE",
"570 250 OFFCURVE",
"577 272 CURVE SMOOTH",
"587 298 OFFCURVE",
"610 288 OFFCURVE",
"612 298 CURVE SMOOTH",
"615 308 OFFCURVE",
"624 335 OFFCURVE",
"617 337 CURVE SMOOTH",
"613 338 OFFCURVE",
"506 337 OFFCURVE",
"497 337 CURVE SMOOTH",
"455 337 OFFCURVE",
"405 341 OFFCURVE",
"400 338 CURVE SMOOTH",
"389 332 OFFCURVE",
"388 296 OFFCURVE",
"392 292 CURVE SMOOTH",
"395 289 OFFCURVE",
"460 285 OFFCURVE",
"460 258 CURVE SMOOTH",
"460 203 OFFCURVE",
"458 107 OFFCURVE",
"402 71 CURVE",
"295 67 OFFCURVE",
"208 158 OFFCURVE",
"192 276 CURVE SMOOTH",
"164 480 OFFCURVE",
"260 603 OFFCURVE",
"331 630 CURVE",
"535 605 OFFCURVE",
"524 485 OFFCURVE",
"524 478 CURVE SMOOTH",
"526 471 OFFCURVE",
"565 473 OFFCURVE",
"567 482 CURVE SMOOTH",
"577 534 OFFCURVE",
"588 580 OFFCURVE",
"604 632 CURVE",
"575 669 OFFCURVE",
"474 708 OFFCURVE",
"368 708 CURVE SMOOTH"
);
}
);
width = 600;
}
);
unicode = 0047;
},
{
glyphname = I;
lastChange = "2015-11-02 18:36:27 +0000";
layers = (
{
background = {
paths = (
{
closed = 1;
nodes = (
"546 162 OFFCURVE",
"507 171 OFFCURVE",
"502 169 CURVE SMOOTH",
"499 166 OFFCURVE",
"489 91 OFFCURVE",
"427 69 CURVE SMOOTH",
"383 56 OFFCURVE",
"327 52 OFFCURVE",
"276 55 CURVE",
"258 144 OFFCURVE",
"269 278 OFFCURVE",
"286 433 CURVE SMOOTH",
"294 505 OFFCURVE",
"307 623 OFFCURVE",
"336 646 CURVE SMOOTH",
"353 659 OFFCURVE",
"364 652 OFFCURVE",
"371 659 CURVE SMOOTH",
"377 667 OFFCURVE",
"380 700 OFFCURVE",
"371 700 CURVE SMOOTH",
"290 698 OFFCURVE",
"265 698 OFFCURVE",
"229 698 CURVE SMOOTH",
"198 698 OFFCURVE",
"168 700 OFFCURVE",
"126 701 CURVE SMOOTH",
"117 701 OFFCURVE",
"111 669 OFFCURVE",
"118 661 CURVE SMOOTH",
"122 654 OFFCURVE",
"138 656 OFFCURVE",
"153 643 CURVE SMOOTH",
"179 619 OFFCURVE",
"167 510 OFFCURVE",
"157 418 CURVE SMOOTH",
"144 299 OFFCURVE",
"113 96 OFFCURVE",
"115 82 CURVE SMOOTH",
"119 71 OFFCURVE",
"130 62 OFFCURVE",
"166 46 CURVE",
"139 46 OFFCURVE",
"64 49 OFFCURVE",
"59 47 CURVE SMOOTH",
"52 43 OFFCURVE",
"48 1 OFFCURVE",
"56 0 CURVE",
"163 2 OFFCURVE",
"303 1 OFFCURVE",
"333 0 CURVE SMOOTH",
"441 -2 OFFCURVE",
"524 -5 OFFCURVE",
"523 0 CURVE",
"533 83 OFFCURVE",
"549 149 OFFCURVE",
"548 155 CURVE SMOOTH"
);
}
);
};
layerId = "71FD7A9F-05F5-4D76-8D4F-547475A05E4C";
name = "Regular Italic";
paths = (
{
closed = 1;
nodes = (
"276 698 OFFCURVE",
"243 698 OFFCURVE",
"199 698 CURVE SMOOTH",
"160 698 OFFCURVE",
"125 699 OFFCURVE",
"82 700 CURVE SMOOTH",
"73 700 OFFCURVE",
"67 669 OFFCURVE",
"73 661 CURVE SMOOTH",
"78 654 OFFCURVE",
"98 657 OFFCURVE",
"113 644 CURVE SMOOTH",
"139 620 OFFCURVE",
"124 484 OFFCURVE",
"118 427 CURVE SMOOTH",
"103 290 OFFCURVE",
"70 95 OFFCURVE",
"72 80 CURVE SMOOTH",
"74 69 OFFCURVE",
"87 60 OFFCURVE",
"122 43 CURVE",
"94 44 OFFCURVE",
"15 47 OFFCURVE",
"8 44 CURVE SMOOTH",
"1 42 OFFCURVE",
"-1 0 OFFCURVE",
"6 0 CURVE",
"28 5 OFFCURVE",
"281 0 OFFCURVE",
"298 0 CURVE",
"308 0 OFFCURVE",
"307 46 OFFCURVE",
"302 46 CURVE SMOOTH",
"297 46 OFFCURVE",
"274 45 OFFCURVE",
"261 45 CURVE SMOOTH",
"197 45 OFFCURVE",
"237 322 OFFCURVE",
"248 443 CURVE SMOOTH",
"259 564 OFFCURVE",
"273 624 OFFCURVE",
"303 645 CURVE SMOOTH",
"320 659 OFFCURVE",
"334 652 OFFCURVE",
"340 659 CURVE SMOOTH",
"348 667 OFFCURVE",
"349 699 OFFCURVE",
"340 699 CURVE SMOOTH"
);
}
);
width = 349;
}
);
unicode = 0049;
},
{
glyphname = L;
lastChange = "2015-11-06 19:26:45 +0000";
layers = (
{
background = {
paths = (
{
closed = 1;
nodes = (
"253 702 OFFCURVE",
"382 713 OFFCURVE",
"475 670 CURVE SMOOTH",
"643 593 OFFCURVE",
"560 297 OFFCURVE",
"340 298 CURVE SMOOTH",
"310 298 OFFCURVE",
"259 303 OFFCURVE",
"233 322 CURVE SMOOTH",
"207 337 OFFCURVE",
"196 407 OFFCURVE",
"211 389 CURVE SMOOTH",
"233 363 OFFCURVE",
"254 353 OFFCURVE",
"287 349 CURVE SMOOTH",
"491 324 OFFCURVE",
"452 654 OFFCURVE",
"309 649 CURVE SMOOTH",
"274 646 OFFCURVE",
"262 561 OFFCURVE",
"249 442 CURVE SMOOTH",
"236 323 OFFCURVE",
"206 42 OFFCURVE",
"273 42 CURVE SMOOTH",
"286 42 OFFCURVE",
"300 44 OFFCURVE",
"305 43 CURVE SMOOTH",
"310 43 OFFCURVE",
"316 0 OFFCURVE",
"306 0 CURVE",
"290 0 OFFCURVE",
"170 2 OFFCURVE",
"19 0 CURVE",
"12 -1 OFFCURVE",
"17 39 OFFCURVE",
"23 42 CURVE SMOOTH",
"30 44 OFFCURVE",
"102 41 OFFCURVE",
"130 41 CURVE",
"96 57 OFFCURVE",
"84 66 OFFCURVE",
"82 78 CURVE SMOOTH",
"79 91 OFFCURVE",
"114 369 OFFCURVE",
"121 426 CURVE SMOOTH",
"127 485 OFFCURVE",
"146 629 OFFCURVE",
"116 648 CURVE SMOOTH",
"101 658 OFFCURVE",
"74 657 OFFCURVE",
"69 663 CURVE SMOOTH",
"61 671 OFFCURVE",
"69 700 OFFCURVE",
"78 700 CURVE SMOOTH"
);
}
);
};
layerId = "71FD7A9F-05F5-4D76-8D4F-547475A05E4C";
name = "Regular Italic";
paths = (
{
closed = 1;
nodes = (
"505 168 OFFCURVE",
"466 177 OFFCURVE",
"461 175 CURVE SMOOTH",
"458 172 OFFCURVE",
"448 97 OFFCURVE",
"386 75 CURVE SMOOTH",
"342 62 OFFCURVE",
"286 58 OFFCURVE",
"235 61 CURVE",
"217 150 OFFCURVE",
"228 278 OFFCURVE",
"245 433 CURVE SMOOTH",
"253 505 OFFCURVE",
"266 617 OFFCURVE",
"295 640 CURVE SMOOTH",
"312 653 OFFCURVE",
"323 646 OFFCURVE",
"330 653 CURVE SMOOTH",
"336 661 OFFCURVE",
"339 700 OFFCURVE",
"330 700 CURVE SMOOTH",
"255 698 OFFCURVE",
"231 698 OFFCURVE",
"195 698 CURVE SMOOTH",
"164 698 OFFCURVE",
"127 700 OFFCURVE",
"85 701 CURVE SMOOTH",
"76 701 OFFCURVE",
"70 663 OFFCURVE",
"77 655 CURVE SMOOTH",
"81 648 OFFCURVE",
"97 650 OFFCURVE",
"112 637 CURVE SMOOTH",
"138 613 OFFCURVE",
"126 510 OFFCURVE",
"116 418 CURVE SMOOTH",
"103 299 OFFCURVE",
"72 102 OFFCURVE",
"74 88 CURVE SMOOTH",
"78 77 OFFCURVE",
"94 69 OFFCURVE",
"130 53 CURVE",
"103 53 OFFCURVE",
"16 55 OFFCURVE",
"11 53 CURVE SMOOTH",
"4 49 OFFCURVE",
"-3 1 OFFCURVE",
"5 0 CURVE",
"112 2 OFFCURVE",
"262 1 OFFCURVE",
"292 0 CURVE SMOOTH",
"400 -2 OFFCURVE",
"483 -5 OFFCURVE",
"482 0 CURVE",
"492 89 OFFCURVE",
"508 155 OFFCURVE",
"507 161 CURVE SMOOTH"
);
}
);
width = 531;
}
);
leftMetricsKey = I;
unicode = 004C;
},
{
glyphname = O;
lastChange = "2015-11-02 18:03:31 +0000";
layers = (
{
layerId = "71FD7A9F-05F5-4D76-8D4F-547475A05E4C";
name = "Regular Italic";
paths = (
{
closed = 1;
nodes = (
"533 658 OFFCURVE",
"438 737 OFFCURVE",
"285 694 CURVE SMOOTH",
"28 620 OFFCURVE",
"-43 281 OFFCURVE",
"115 84 CURVE SMOOTH",
"161 26 OFFCURVE",
"277 -37 OFFCURVE",
"410 5 CURVE SMOOTH",
"633 69 OFFCURVE",
"739 409 OFFCURVE",
"577 605 CURVE SMOOTH"
);
},
{
closed = 1;
nodes = (
"378 81 LINE",
"378 81 OFFCURVE",
"287 42 OFFCURVE",
"220 172 CURVE SMOOTH",
"154 304 OFFCURVE",
"176 534 OFFCURVE",
"311 618 CURVE",
"311 618 LINE",
"311 618 OFFCURVE",
"401 653 OFFCURVE",
"467 521 CURVE SMOOTH",
"533 390 OFFCURVE",
"512 166 OFFCURVE",
"378 81 CURVE"
);
}
);
width = 663;
}
);
unicode = 004F;
},
{
glyphname = P;
lastChange = "2015-11-02 18:38:26 +0000";
layers = (
{
layerId = "71FD7A9F-05F5-4D76-8D4F-547475A05E4C";
name = "Regular Italic";
paths = (
{
closed = 1;
nodes = (
"225 704 OFFCURVE",
"385 713 OFFCURVE",
"478 670 CURVE SMOOTH",
"638 596 OFFCURVE",
"565 286 OFFCURVE",
"345 287 CURVE SMOOTH",
"315 287 OFFCURVE",
"264 292 OFFCURVE",
"238 311 CURVE SMOOTH",
"212 326 OFFCURVE",
"201 402 OFFCURVE",
"216 384 CURVE SMOOTH",
"238 358 OFFCURVE",
"259 350 OFFCURVE",
"292 346 CURVE SMOOTH",
"499 322 OFFCURVE",
"462 652 OFFCURVE",
"314 649 CURVE SMOOTH",
"279 648 OFFCURVE",
"266 561 OFFCURVE",
"254 442 CURVE SMOOTH",
"241 312 OFFCURVE",
"211 42 OFFCURVE",
"278 42 CURVE SMOOTH",
"291 42 OFFCURVE",
"305 44 OFFCURVE",
"310 43 CURVE SMOOTH",
"315 43 OFFCURVE",
"321 0 OFFCURVE",
"311 0 CURVE",
"295 0 OFFCURVE",
"175 2 OFFCURVE",
"24 0 CURVE",
"17 -1 OFFCURVE",
"22 39 OFFCURVE",
"28 42 CURVE SMOOTH",
"35 44 OFFCURVE",
"107 41 OFFCURVE",
"135 41 CURVE",
"101 57 OFFCURVE",
"89 66 OFFCURVE",
"87 78 CURVE SMOOTH",
"84 91 OFFCURVE",
"119 369 OFFCURVE",
"126 426 CURVE SMOOTH",
"132 485 OFFCURVE",
"151 629 OFFCURVE",
"121 648 CURVE SMOOTH",
"106 658 OFFCURVE",
"79 657 OFFCURVE",
"74 663 CURVE SMOOTH",
"66 671 OFFCURVE",
"74 700 OFFCURVE",
"83 700 CURVE SMOOTH"
);
}
);
width = 583;
}
);
leftMetricsKey = I;
unicode = 0050;
},
{
glyphname = R;
lastChange = "2015-11-02 18:41:08 +0000";
layers = (
{
background = {
paths = (
{
closed = 1;
nodes = (
"483 702 OFFCURVE",
"378 695 OFFCURVE",
"196 694 CURVE SMOOTH",
"66 693 OFFCURVE",
"-77 701 OFFCURVE",
"-76 694 CURVE",
"-86 612 OFFCURVE",
"-104 544 OFFCURVE",
"-103 536 CURVE SMOOTH",
"-102 530 OFFCURVE",
"-65 522 OFFCURVE",
"-61 524 CURVE SMOOTH",
"-57 527 OFFCURVE",
"-46 605 OFFCURVE",
"16 626 CURVE SMOOTH",
"51 637 OFFCURVE",
"85 641 OFFCURVE",
"127 641 CURVE",
"134 634 OFFCURVE",
"116 454 OFFCURVE",
"112 407 CURVE SMOOTH",
"95 204 OFFCURVE",
"66 92 OFFCURVE",
"68 78 CURVE SMOOTH",
"70 68 OFFCURVE",
"79 59 OFFCURVE",
"114 41 CURVE",
"87 41 OFFCURVE",
"11 45 OFFCURVE",
"4 42 CURVE SMOOTH",
"-2 40 OFFCURVE",
"-7 -1 OFFCURVE",
"0 0 CURVE",
"23 4 OFFCURVE",
"243 1 OFFCURVE",
"283 0 CURVE",
"292 1 OFFCURVE",
"291 43 OFFCURVE",
"286 44 CURVE SMOOTH",
"282 44 OFFCURVE",
"266 42 OFFCURVE",
"253 42 CURVE SMOOTH",
"189 42 OFFCURVE",
"232 322 OFFCURVE",
"243 441 CURVE SMOOTH",
"253 547 OFFCURVE",
"261 603 OFFCURVE",
"271 641 CURVE",
"284 641 OFFCURVE",
"299 640 OFFCURVE",
"315 640 CURVE SMOOTH",
"413 639 OFFCURVE",
"438 573 OFFCURVE",
"452 524 CURVE SMOOTH",
"454 520 OFFCURVE",
"490 530 OFFCURVE",
"491 536 CURVE SMOOTH",
"492 543 OFFCURVE",
"487 622 OFFCURVE",
"483 695 CURVE"
);
}
);
};
guideLines = (
{
position = "{491, 480}";
}
);
layerId = "71FD7A9F-05F5-4D76-8D4F-547475A05E4C";
name = "Regular Italic";
paths = (
{
closed = 1;
nodes = (
"533 75 OFFCURVE",
"524 98 OFFCURVE",
"512 116 CURVE",
"439 315 OFFCURVE",
"412 322 OFFCURVE",
"400 325 CURVE",
"487 353 OFFCURVE",
"543 440 OFFCURVE",
"546 518 CURVE SMOOTH",
"554 739 OFFCURVE",
"276 703 OFFCURVE",
"82 699 CURVE SMOOTH",
"72 699 OFFCURVE",
"70 669 OFFCURVE",
"73 660 CURVE SMOOTH",
"80 653 OFFCURVE",
"98 656 OFFCURVE",
"113 648 CURVE SMOOTH",
"133 635 OFFCURVE",
"122 466 OFFCURVE",
"106 326 CURVE SMOOTH",
"84 137 OFFCURVE",
"64 86 OFFCURVE",
"70 73 CURVE SMOOTH",
"74 64 OFFCURVE",
"93 54 OFFCURVE",
"117 43 CURVE",
"88 43 OFFCURVE",
"20 47 OFFCURVE",
"13 43 CURVE SMOOTH",
"7 40 OFFCURVE",
"4 0 OFFCURVE",
"10 0 CURVE",
"158 3 OFFCURVE",
"261 0 OFFCURVE",
"279 0 CURVE",
"289 0 OFFCURVE",
"289 43 OFFCURVE",
"282 43 CURVE SMOOTH",
"279 47 OFFCURVE",
"264 43 OFFCURVE",
"251 43 CURVE SMOOTH",
"204 43 OFFCURVE",
"214 178 OFFCURVE",
"229 306 CURVE",
"314 306 OFFCURVE",
"322 311 OFFCURVE",
"382 58 CURVE SMOOTH",
"395 2 OFFCURVE",
"423 -36 OFFCURVE",
"544 35 CURVE SMOOTH",
"566 48 OFFCURVE",
"581 60 OFFCURVE",
"591 75 CURVE",
"594 85 OFFCURVE",
"569 116 OFFCURVE",
"563 106 CURVE SMOOTH"
);
},
{
closed = 1;
nodes = (
"329 352 OFFCURVE",
"287 352 OFFCURVE",
"234 358 CURVE",
"241 425 OFFCURVE",
"248 489 OFFCURVE",
"257 556 CURVE",
"269 619 OFFCURVE",
"282 651 OFFCURVE",
"304 651 CURVE SMOOTH",
"426 653 OFFCURVE",
"464 400 OFFCURVE",
"349 359 CURVE SMOOTH"
);
}
);
width = 621;
}
);
leftMetricsKey = I;
unicode = 0052;
},
{
glyphname = T;
lastChange = "2015-11-02 18:37:56 +0000";
layers = (
{
layerId = "71FD7A9F-05F5-4D76-8D4F-547475A05E4C";
name = "Regular Italic";
paths = (
{
closed = 1;
nodes = (
"617 702 OFFCURVE",
"512 695 OFFCURVE",
"330 694 CURVE SMOOTH",
"200 693 OFFCURVE",
"57 701 OFFCURVE",
"58 694 CURVE",
"48 612 OFFCURVE",
"30 544 OFFCURVE",
"31 536 CURVE SMOOTH",
"32 530 OFFCURVE",
"69 522 OFFCURVE",
"73 524 CURVE SMOOTH",
"77 527 OFFCURVE",
"88 605 OFFCURVE",
"150 626 CURVE SMOOTH",
"185 637 OFFCURVE",
"219 641 OFFCURVE",
"261 641 CURVE",
"268 634 OFFCURVE",
"250 474 OFFCURVE",
"245 427 CURVE SMOOTH",
"230 278 OFFCURVE",
"196 92 OFFCURVE",
"198 78 CURVE SMOOTH",
"200 68 OFFCURVE",
"213 59 OFFCURVE",
"248 41 CURVE",
"221 41 OFFCURVE",
"145 45 OFFCURVE",
"138 42 CURVE SMOOTH",
"132 40 OFFCURVE",
"127 -1 OFFCURVE",
"134 0 CURVE",
"157 4 OFFCURVE",
"377 1 OFFCURVE",
"417 0 CURVE",
"426 1 OFFCURVE",
"425 43 OFFCURVE",
"420 44 CURVE SMOOTH",
"416 44 OFFCURVE",
"400 42 OFFCURVE",
"387 42 CURVE SMOOTH",
"323 42 OFFCURVE",
"366 322 OFFCURVE",
"377 441 CURVE SMOOTH",
"387 547 OFFCURVE",
"395 603 OFFCURVE",
"405 641 CURVE",
"418 641 OFFCURVE",
"433 640 OFFCURVE",
"449 640 CURVE SMOOTH",
"547 639 OFFCURVE",
"572 573 OFFCURVE",
"586 524 CURVE SMOOTH",
"588 520 OFFCURVE",
"624 530 OFFCURVE",
"625 536 CURVE SMOOTH",
"626 543 OFFCURVE",
"621 622 OFFCURVE",
"617 695 CURVE"
);
}
);
width = 594;
}
);
unicode = 0054;
},
{
glyphname = a;
lastChange = "2015-11-08 16:52:24 +0000";
layers = (
{
background = {
paths = (
{
closed = 1;
nodes = (
"105 2 OFFCURVE",
"140 -5 OFFCURVE",
"175 2 CURVE",
"235 40 OFFCURVE",
"288 136 OFFCURVE",
"303 182 CURVE",
"278 -11 OFFCURVE",
"244 -207 OFFCURVE",
"251 -213 CURVE SMOOTH",
"264 -225 OFFCURVE",
"424 -263 OFFCURVE",
"437 -257 CURVE",
"437 -257 OFFCURVE",
"458 -220 OFFCURVE",
"439 -213 CURVE SMOOTH",
"424 -207 OFFCURVE",
"405 -172 OFFCURVE",
"399 -100 CURVE SMOOTH",
"395 -57 OFFCURVE",
"402 148 OFFCURVE",
"437 359 CURVE",
"445 391 OFFCURVE",
"452 426 OFFCURVE",
"465 457 CURVE",
"462 464 OFFCURVE",
"442 476 OFFCURVE",
"427 482 CURVE SMOOTH",
"412 485 OFFCURVE",
"405 479 OFFCURVE",
"395 460 CURVE SMOOTH",
"389 451 OFFCURVE",
"386 442 OFFCURVE",
"380 432 CURVE",
"345 464 OFFCURVE",
"264 490 OFFCURVE",
"200 483 CURVE",
"24 433 OFFCURVE",
"-33 174 OFFCURVE",
"75 40 CURVE SMOOTH"
);
},
{
closed = 1;
nodes = (
"218 416 LINE SMOOTH",
"218 416 OFFCURVE",
"269 426 OFFCURVE",
"322 357 CURVE",
"317 312 LINE",
"310 245 OFFCURVE",
"218 117 OFFCURVE",
"200 112 CURVE",
"193 112 OFFCURVE",
"175 130 OFFCURVE",
"168 151 CURVE SMOOTH",
"140 234 OFFCURVE",
"140 369 OFFCURVE",
"218 416 CURVE"
);
}
);
};
guideLines = (
{
angle = -20;
position = "{414, 503}";
}
);
layerId = "71FD7A9F-05F5-4D76-8D4F-547475A05E4C";
name = "Regular Italic";
paths = (
{
closed = 1;
nodes = (
"292 77 OFFCURVE",
"339 260 OFFCURVE",
"347 295 CURVE",
"347 295 OFFCURVE",
"339 304 OFFCURVE",
"320 311 CURVE",
"311 248 OFFCURVE",
"217 116 OFFCURVE",
"201 109 CURVE",
"194 109 OFFCURVE",
"184 115 OFFCURVE",
"173 138 CURVE SMOOTH",
"136 216 OFFCURVE",
"139 368 OFFCURVE",
"218 417 CURVE",
"218 417 LINE SMOOTH",
"218 417 OFFCURVE",
"291 411 OFFCURVE",
"331 327 CURVE",
"331 327 OFFCURVE",
"396 360 OFFCURVE",
"396 416 CURVE",
"365 457 OFFCURVE",
"281 490 OFFCURVE",
"198 483 CURVE",
"24 433 OFFCURVE",
"-32 171 OFFCURVE",
"75 41 CURVE SMOOTH",
"108 1 OFFCURVE",
"137 -4 OFFCURVE",
"175 0 CURVE"
);
},
{
closed = 1;
nodes = (
"452 4 OFFCURVE",
"475 30 OFFCURVE",
"490 58 CURVE SMOOTH",
"497 72 OFFCURVE",
"507 91 OFFCURVE",
"496 96 CURVE SMOOTH",
"473 107 OFFCURVE",
"472 109 OFFCURVE",
"466 97 CURVE SMOOTH",
"453 72 OFFCURVE",
"442 55 OFFCURVE",
"429 67 CURVE SMOOTH",
"390 102 OFFCURVE",
"433 322 OFFCURVE",
"439 352 CURVE SMOOTH",
"445 383 OFFCURVE",
"455 428 OFFCURVE",
"466 460 CURVE",
"465 467 OFFCURVE",
"434 479 OFFCURVE",
"421 483 CURVE SMOOTH",
"403 488 OFFCURVE",
"396 476 OFFCURVE",
"389 458 CURVE SMOOTH",
"356 376 OFFCURVE",
"336 399 OFFCURVE",
"331 371 CURVE",
"326 364 OFFCURVE",
"325 362 OFFCURVE",
"323 347 CURVE SMOOTH",
"310 243 OFFCURVE",
"272 60 OFFCURVE",
"296 42 CURVE SMOOTH",
"317 26 OFFCURVE",
"367 -8 OFFCURVE",
"417 -1 CURVE SMOOTH"
);
}
);
width = 527;
}
);
leftMetricsKey = e;
rightMetricsKey = i;
unicode = 0061;
},
{
glyphname = b;
lastChange = "2015-11-02 15:27:08 +0000";
layers = (
{
guideLines = (
{
angle = -12;
position = "{232, 724}";
},
{
angle = -20;
position = "{70, -2}";
}
);
layerId = "71FD7A9F-05F5-4D76-8D4F-547475A05E4C";
name = "Regular Italic";
paths = (
{
closed = 1;
nodes = (
"424 480 OFFCURVE",
"395 487 OFFCURVE",
"356 480 CURVE",
"296 442 OFFCURVE",
"243 346 OFFCURVE",
"228 300 CURVE",
"253 496 OFFCURVE",
"286 685 OFFCURVE",
"280 695 CURVE SMOOTH",
"275 704 OFFCURVE",
"107 746 OFFCURVE",
"94 739 CURVE",
"94 739 OFFCURVE",
"74 715 OFFCURVE",
"92 695 CURVE SMOOTH",
"102 684 OFFCURVE",
"124 676 OFFCURVE",
"132 582 CURVE SMOOTH",
"143 446 OFFCURVE",
"111 203 OFFCURVE",
"94 123 CURVE SMOOTH",
"87 91 OFFCURVE",
"78 48 OFFCURVE",
"65 17 CURVE",
"66 13 OFFCURVE",
"83 6 OFFCURVE",
"104 1 CURVE SMOOTH",
"121 -3 OFFCURVE",
"124 -2 OFFCURVE",
"136 22 CURVE SMOOTH",
"148 46 OFFCURVE",
"144 38 OFFCURVE",
"151 50 CURVE",
"186 18 OFFCURVE",
"267 -8 OFFCURVE",
"331 -1 CURVE",
"507 48 OFFCURVE",
"564 312 OFFCURVE",
"456 442 CURVE SMOOTH"
);
},
{
closed = 1;
nodes = (
"313 66 LINE SMOOTH",
"313 66 OFFCURVE",
"264 56 OFFCURVE",
"211 125 CURVE",
"214 170 LINE",
"221 237 OFFCURVE",
"313 360 OFFCURVE",
"331 365 CURVE",
"338 365 OFFCURVE",
"353 356 OFFCURVE",
"363 331 CURVE SMOOTH",
"390 264 OFFCURVE",
"392 110 OFFCURVE",
"313 66 CURVE"
);
}
);
width = 529;
}
);
leftMetricsKey = i;
rightMetricsKey = o;
unicode = 0062;
},
{
glyphname = c;
lastChange = "2015-11-02 17:50:04 +0000";
layers = (
{
background = {
paths = (
{
closed = 1;
nodes = (
"291 357 OFFCURVE",
"285 418 OFFCURVE",
"223 418 CURVE",
"144 366 OFFCURVE",
"136 215 OFFCURVE",
"168 141 CURVE SMOOTH",
"185 101 OFFCURVE",
"224 74 OFFCURVE",
"252 70 CURVE SMOOTH",
"297 64 OFFCURVE",
"335 87 OFFCURVE",
"345 105 CURVE",
"363 98 OFFCURVE",
"380 89 OFFCURVE",
"380 89 CURVE",
"374 68 OFFCURVE",
"342 30 OFFCURVE",
"294 10 CURVE SMOOTH",
"233 -15 OFFCURVE",
"129 -12 OFFCURVE",
"74 52 CURVE SMOOTH",
"-35 178 OFFCURVE",
"27 433 OFFCURVE",
"206 483 CURVE",
"330 495 OFFCURVE",
"391 441 OFFCURVE",
"403 377 CURVE SMOOTH",
"424 263 OFFCURVE",
"306 154 OFFCURVE",
"138 186 CURVE",
"78 218 OFFCURVE",
"91 210 OFFCURVE",
"138 233 CURVE",
"247 217 OFFCURVE",
"305 271 OFFCURVE",
"295 334 CURVE SMOOTH"
);
}
);
};
layerId = "71FD7A9F-05F5-4D76-8D4F-547475A05E4C";
name = "Regular Italic";
paths = (
{
closed = 1;
nodes = (
"285 407 OFFCURVE",
"222 408 OFFCURVE",
"222 408 CURVE SMOOTH",
"222 408 LINE",
"142 359 OFFCURVE",
"138 219 OFFCURVE",
"172 139 CURVE SMOOTH",
"187 104 OFFCURVE",
"221 76 OFFCURVE",
"256 70 CURVE SMOOTH",
"294 64 OFFCURVE",
"334 89 OFFCURVE",
"344 105 CURVE",
"362 97 OFFCURVE",
"379 89 OFFCURVE",
"379 89 CURVE",
"372 66 OFFCURVE",
"334 27 OFFCURVE",
"293 11 CURVE SMOOTH",
"204 -24 OFFCURVE",
"114 9 OFFCURVE",
"73 53 CURVE SMOOTH",
"-32 166 OFFCURVE",
"23 428 OFFCURVE",
"199 481 CURVE",
"303 498 OFFCURVE",
"389 456 OFFCURVE",
"401 413 CURVE",
"380 354 OFFCURVE",
"342 331 OFFCURVE",
"342 331 CURVE"
);
}
);
width = 405;
}
);
leftMetricsKey = o;
rightMetricsKey = "=e-5";
unicode = 0063;
},
{
glyphname = d;
lastChange = "2015-11-02 15:58:32 +0000";
layers = (
{
background = {
paths = (
{
closed = 1;
nodes = (
"288 77 OFFCURVE",
"335 277 OFFCURVE",
"343 312 CURVE",
"343 312 OFFCURVE",
"335 304 OFFCURVE",
"316 311 CURVE",
"307 248 OFFCURVE",
"215 116 OFFCURVE",
"199 109 CURVE",
"192 109 OFFCURVE",
"182 115 OFFCURVE",
"171 138 CURVE SMOOTH",
"134 216 OFFCURVE",
"137 368 OFFCURVE",
"216 417 CURVE",
"216 417 LINE SMOOTH",
"216 417 OFFCURVE",
"277 422 OFFCURVE",
"332 344 CURVE",
"332 344 OFFCURVE",
"392 360 OFFCURVE",
"392 416 CURVE",
"361 457 OFFCURVE",
"277 490 OFFCURVE",
"196 483 CURVE",
"22 433 OFFCURVE",
"-34 171 OFFCURVE",
"73 41 CURVE SMOOTH",
"106 1 OFFCURVE",
"135 -4 OFFCURVE",
"173 0 CURVE"
);
},
{
closed = 1;
nodes = (
"453 5 OFFCURVE",
"471 30 OFFCURVE",
"486 58 CURVE SMOOTH",
"493 72 OFFCURVE",
"503 90 OFFCURVE",
"492 96 CURVE SMOOTH",
"470 108 OFFCURVE",
"470 110 OFFCURVE",
"463 98 CURVE SMOOTH",
"449 73 OFFCURVE",
"438 55 OFFCURVE",
"425 67 CURVE SMOOTH",
"386 102 OFFCURVE",
"429 322 OFFCURVE",
"435 352 CURVE SMOOTH",
"441 383 OFFCURVE",
"450 426 OFFCURVE",
"461 458 CURVE",
"460 465 OFFCURVE",
"434 477 OFFCURVE",
"421 481 CURVE SMOOTH",
"403 486 OFFCURVE",
"395 476 OFFCURVE",
"385 458 CURVE SMOOTH",
"339 376 OFFCURVE",
"332 399 OFFCURVE",
"327 371 CURVE",
"322 364 OFFCURVE",
"321 362 OFFCURVE",
"319 347 CURVE SMOOTH",
"306 243 OFFCURVE",
"268 62 OFFCURVE",
"292 44 CURVE SMOOTH",
"313 28 OFFCURVE",
"368 -12 OFFCURVE",
"419 -2 CURVE SMOOTH"
);
}
);
};
guideLines = (
{
position = "{314, 410}";
},
{
angle = -18;
position = "{513, 111}";
},
{
position = "{1181, 374}";
}
);
layerId = "71FD7A9F-05F5-4D76-8D4F-547475A05E4C";
name = "Regular Italic";
paths = (
{
closed = 1;
nodes = (
"454 2 OFFCURVE",
"482 37 OFFCURVE",
"498 85 CURVE",
"502 97 OFFCURVE",
"488 99 OFFCURVE",
"472 105 CURVE SMOOTH",
"466 107 OFFCURVE",
"463 104 OFFCURVE",
"460 97 CURVE SMOOTH",
"449 74 OFFCURVE",
"441 64 OFFCURVE",
"433 64 CURVE SMOOTH",
"425 64 OFFCURVE",
"410 81 OFFCURVE",
"410 127 CURVE SMOOTH",
"410 183 OFFCURVE",
"428 300 OFFCURVE",
"447 432 CURVE SMOOTH",
"460 521 OFFCURVE",
"495 675 OFFCURVE",
"482 698 CURVE SMOOTH",
"473 711 OFFCURVE",
"323 745 OFFCURVE",
"310 738 CURVE",
"310 738 OFFCURVE",
"287 702 OFFCURVE",
"305 694 CURVE SMOOTH",
"320 686 OFFCURVE",
"339 663 OFFCURVE",
"345 586 CURVE SMOOTH",
"350 520 OFFCURVE",
"342 442 OFFCURVE",
"323 326 CURVE SMOOTH",
"306 235 OFFCURVE",
"274 58 OFFCURVE",
"297 40 CURVE SMOOTH",
"305 34 OFFCURVE",
"360 -12 OFFCURVE",
"415 -4 CURVE SMOOTH"
);
},
{
closed = 1;
nodes = (
"292 77 OFFCURVE",
"339 277 OFFCURVE",
"347 312 CURVE",
"347 312 OFFCURVE",
"339 304 OFFCURVE",
"320 311 CURVE",
"311 248 OFFCURVE",
"217 116 OFFCURVE",
"201 109 CURVE",
"194 109 OFFCURVE",
"184 115 OFFCURVE",
"173 138 CURVE SMOOTH",
"136 216 OFFCURVE",
"139 368 OFFCURVE",
"218 417 CURVE",
"218 417 LINE SMOOTH",
"218 417 OFFCURVE",
"304 408 OFFCURVE",
"333 328 CURVE",
"333 328 OFFCURVE",
"396 360 OFFCURVE",
"396 416 CURVE",
"365 457 OFFCURVE",
"281 490 OFFCURVE",
"198 483 CURVE",
"24 433 OFFCURVE",
"-32 171 OFFCURVE",
"75 41 CURVE SMOOTH",
"108 1 OFFCURVE",
"137 -4 OFFCURVE",
"175 0 CURVE"
);
}
);
width = 540;
}
);
leftMetricsKey = o;
rightMetricsKey = i;
unicode = 0064;
},
{
glyphname = e;
lastChange = "2015-11-02 15:37:01 +0000";
layers = (
{
background = {
paths = (
{
closed = 1;
nodes = (
"387 466 OFFCURVE",
"314 498 OFFCURVE",
"208 480 CURVE",
"26 429 OFFCURVE",
"-34 194 OFFCURVE",
"75 55 CURVE SMOOTH",
"111 8 OFFCURVE",
"186 -20 OFFCURVE",
"289 5 CURVE SMOOTH",
"446 50 OFFCURVE",
"531 293 OFFCURVE",
"419 429 CURVE SMOOTH"
);
},
{
closed = 1;
nodes = (
"264 75 LINE",
"264 75 OFFCURVE",
"210 61 OFFCURVE",
"173 140 CURVE SMOOTH",
"129 233 OFFCURVE",
"145 362 OFFCURVE",
"227 413 CURVE",
"228 413 LINE",
"228 413 OFFCURVE",
"278 417 OFFCURVE",
"315 339 CURVE SMOOTH",
"358 251 OFFCURVE",
"347 126 OFFCURVE",
"264 75 CURVE"
);
}
);
};
layerId = "71FD7A9F-05F5-4D76-8D4F-547475A05E4C";
name = "Regular Italic";
paths = (
{
closed = 1;
nodes = (
"292 357 OFFCURVE",
"286 418 OFFCURVE",
"224 418 CURVE",
"145 366 OFFCURVE",
"137 215 OFFCURVE",
"169 141 CURVE SMOOTH",
"186 101 OFFCURVE",
"225 74 OFFCURVE",
"253 70 CURVE SMOOTH",
"298 64 OFFCURVE",
"336 87 OFFCURVE",
"346 105 CURVE",
"364 98 OFFCURVE",
"381 89 OFFCURVE",
"381 89 CURVE",
"375 68 OFFCURVE",
"343 30 OFFCURVE",
"295 10 CURVE SMOOTH",
"234 -15 OFFCURVE",
"130 -12 OFFCURVE",
"75 52 CURVE SMOOTH",
"-34 178 OFFCURVE",
"28 433 OFFCURVE",
"207 483 CURVE",
"331 495 OFFCURVE",
"392 441 OFFCURVE",
"404 377 CURVE SMOOTH",
"425 263 OFFCURVE",
"307 154 OFFCURVE",
"139 186 CURVE",
"79 218 OFFCURVE",
"92 210 OFFCURVE",
"139 233 CURVE",
"248 217 OFFCURVE",
"306 271 OFFCURVE",
"296 334 CURVE SMOOTH"
);
}
);
width = 412;
}
);
leftMetricsKey = o;
rightMetricsKey = "=o-5";
unicode = 0065;
},
{
glyphname = h;
lastChange = "2015-11-06 20:48:30 +0000";
layers = (
{
background = {
paths = (
{
closed = 1;
nodes = (
"225 -2 OFFCURVE",
"252 37 OFFCURVE",
"268 85 CURVE",
"271 97 OFFCURVE",
"257 99 OFFCURVE",
"241 105 CURVE SMOOTH",
"235 107 OFFCURVE",
"232 104 OFFCURVE",
"229 97 CURVE SMOOTH",
"219 74 OFFCURVE",
"211 64 OFFCURVE",
"203 64 CURVE SMOOTH",
"195 64 OFFCURVE",
"180 81 OFFCURVE",
"179 127 CURVE SMOOTH",
"178 183 OFFCURVE",
"194 300 OFFCURVE",
"211 432 CURVE SMOOTH",
"222 521 OFFCURVE",
"254 675 OFFCURVE",
"241 698 CURVE SMOOTH",
"232 711 OFFCURVE",
"88 746 OFFCURVE",
"76 739 CURVE",
"76 739 OFFCURVE",
"53 702 OFFCURVE",
"71 695 CURVE SMOOTH",
"98 685 OFFCURVE",
"109 637 OFFCURVE",
"107 559 CURVE SMOOTH",
"105 493 OFFCURVE",
"99 442 OFFCURVE",
"84 326 CURVE SMOOTH",
"72 234 OFFCURVE",
"40 54 OFFCURVE",
"64 36 CURVE SMOOTH",
"72 30 OFFCURVE",
"129 -7 OFFCURVE",
"186 -4 CURVE SMOOTH"
);
}
);
};
layerId = "71FD7A9F-05F5-4D76-8D4F-547475A05E4C";
name = "Regular Italic";
paths = (
{
closed = 1;
nodes = (
"465 106 OFFCURVE",
"463 109 OFFCURVE",
"458 97 CURVE SMOOTH",
"439 59 OFFCURVE",
"425 59 OFFCURVE",
"420 65 CURVE SMOOTH",
"420 67 OFFCURVE",
"418 69 OFFCURVE",
"417 71 CURVE",
"389 125 OFFCURVE",
"446 351 OFFCURVE",
"467 427 CURVE SMOOTH",
"473 454 OFFCURVE",
"414 482 OFFCURVE",
"375 482 CURVE SMOOTH",
"269 482 OFFCURVE",
"189 255 OFFCURVE",
"193 273 CURVE",
"214 454 OFFCURVE",
"256 688 OFFCURVE",
"241 699 CURVE SMOOTH",
"228 708 OFFCURVE",
"95 746 OFFCURVE",
"75 739 CURVE",
"75 739 OFFCURVE",
"55 704 OFFCURVE",
"71 695 CURVE SMOOTH",
"104 677 OFFCURVE",
"121 619 OFFCURVE",
"89 353 CURVE SMOOTH",
"73 217 OFFCURVE",
"46 45 OFFCURVE",
"44 34 CURVE SMOOTH",
"44 22 OFFCURVE",
"125 -3 OFFCURVE",
"168 -3 CURVE SMOOTH",
"183 -3 OFFCURVE",
"186 14 OFFCURVE",
"179 103 CURVE",
"208 260 OFFCURVE",
"304 357 OFFCURVE",
"331 371 CURVE",
"318 317 OFFCURVE",
"262 95 OFFCURVE",
"280 53 CURVE SMOOTH",
"291 27 OFFCURVE",
"356 -11 OFFCURVE",
"415 -2 CURVE SMOOTH",
"446 3 OFFCURVE",
"470 41 OFFCURVE",
"480 62 CURVE SMOOTH",
"488 76 OFFCURVE",
"498 92 OFFCURVE",
"487 97 CURVE SMOOTH"
);
}
);
width = 533;
}
);
leftMetricsKey = l;
rightMetricsKey = i;
unicode = 0068;
},
{
glyphname = i;
lastChange = "2015-11-08 17:19:30 +0000";
layers = (
{
background = {
paths = (
{
closed = 1;
nodes = (
"223 2 OFFCURVE",
"251 37 OFFCURVE",
"267 85 CURVE",
"271 97 OFFCURVE",
"257 99 OFFCURVE",
"241 105 CURVE SMOOTH",
"235 107 OFFCURVE",
"232 104 OFFCURVE",
"229 97 CURVE SMOOTH",
"218 74 OFFCURVE",
"210 64 OFFCURVE",
"202 64 CURVE SMOOTH",
"194 64 OFFCURVE",
"179 81 OFFCURVE",
"179 127 CURVE SMOOTH",
"179 183 OFFCURVE",
"197 300 OFFCURVE",
"216 432 CURVE SMOOTH",
"229 521 OFFCURVE",
"264 675 OFFCURVE",
"251 698 CURVE SMOOTH",
"242 711 OFFCURVE",
"92 745 OFFCURVE",
"79 738 CURVE",
"79 738 OFFCURVE",
"56 702 OFFCURVE",
"74 694 CURVE SMOOTH",
"89 686 OFFCURVE",
"108 663 OFFCURVE",
"114 586 CURVE SMOOTH",
"119 520 OFFCURVE",
"111 442 OFFCURVE",
"92 326 CURVE SMOOTH",
"75 235 OFFCURVE",
"43 58 OFFCURVE",
"66 40 CURVE SMOOTH",
"74 34 OFFCURVE",
"129 -12 OFFCURVE",
"184 -4 CURVE SMOOTH"
);
}
);
};
guideLines = (
{
angle = -20;
position = "{93, 30}";
}
);
layerId = "71FD7A9F-05F5-4D76-8D4F-547475A05E4C";
name = "Regular Italic";
paths = (
{
closed = 1;
nodes = (
"115 711 OFFCURVE",
"138 713 OFFCURVE",
"155 707 CURVE SMOOTH",
"173 702 OFFCURVE",
"234 693 OFFCURVE",
"233 668 CURVE SMOOTH",
"233 643 OFFCURVE",
"220 565 OFFCURVE",
"203 565 CURVE SMOOTH",
"186 565 OFFCURVE",
"128 572 OFFCURVE",
"117 592 CURVE SMOOTH",
"106 612 OFFCURVE",
"116 699 OFFCURVE",
"116 699 CURVE"
);
},
{
closed = 1;
nodes = (
"77 488 OFFCURVE",
"201 457 OFFCURVE",
"212 446 CURVE SMOOTH",
"227 429 OFFCURVE",
"149 126 OFFCURVE",
"187 68 CURVE SMOOTH",
"192 60 OFFCURVE",
"206 60 OFFCURVE",
"223 97 CURVE SMOOTH",
"228 109 OFFCURVE",
"234 107 OFFCURVE",
"258 98 CURVE SMOOTH",
"269 94 OFFCURVE",
"259 78 OFFCURVE",
"251 58 CURVE SMOOTH",
"241 35 OFFCURVE",
"210 -4 OFFCURVE",
"176 -5 CURVE SMOOTH",
"136 -6 OFFCURVE",
"87 16 OFFCURVE",
"60 35 CURVE SMOOTH",
"32 54 OFFCURVE",
"76 245 OFFCURVE",
"89 345 CURVE SMOOTH",
"94 384 OFFCURVE",
"95 422 OFFCURVE",
"58 434 CURVE SMOOTH",
"41 439 OFFCURVE",
"63 480 OFFCURVE",
"63 480 CURVE"
);
}
);
width = 289;
}
);
leftKerningGroup = i;
rightKerningGroup = i;
unicode = 0069;
},
{
glyphname = j;
lastChange = "2015-11-06 18:38:31 +0000";
layers = (
{
guideLines = (
{
alignment = center;
angle = -12;
position = "{85, 497}";
}
);
layerId = "71FD7A9F-05F5-4D76-8D4F-547475A05E4C";
name = "Regular Italic";
paths = (
{
closed = 1;
nodes = (
"70 711 OFFCURVE",
"93 713 OFFCURVE",
"110 707 CURVE SMOOTH",
"128 702 OFFCURVE",
"189 693 OFFCURVE",
"188 668 CURVE SMOOTH",
"188 643 OFFCURVE",
"175 565 OFFCURVE",
"158 565 CURVE SMOOTH",
"141 565 OFFCURVE",
"83 572 OFFCURVE",
"72 592 CURVE SMOOTH",
"61 612 OFFCURVE",
"71 699 OFFCURVE",
"71 699 CURVE"
);
},
{
closed = 1;
nodes = (
"31 489 OFFCURVE",
"158 456 OFFCURVE",
"168 444 CURVE SMOOTH",
"182 427 OFFCURVE",
"158 368 OFFCURVE",
"120 -134 CURVE SMOOTH",
"104 -348 OFFCURVE",
"-95 -218 OFFCURVE",
"-132 -162 CURVE",
"-101 -121 LINE",
"-49 -175 OFFCURVE",
"-20 -150 OFFCURVE",
"2 -60 CURVE SMOOTH",
"32 62 OFFCURVE",
"47 239 OFFCURVE",
"52 339 CURVE",
"56 378 OFFCURVE",
"52 424 OFFCURVE",
"14 436 CURVE SMOOTH",
"-3 441 OFFCURVE",
"18 481 OFFCURVE",
"18 481 CURVE"
);
}
);
width = 178;
}
);
rightMetricsKey = d;
unicode = 006A;
},
{
glyphname = k;
lastChange = "2015-11-08 17:19:09 +0000";
layers = (
{
background = {
paths = (
{
closed = 1;
nodes = (
"465 106 OFFCURVE",
"463 109 OFFCURVE",
"458 97 CURVE SMOOTH",
"439 59 OFFCURVE",
"425 59 OFFCURVE",
"420 65 CURVE SMOOTH",
"420 67 OFFCURVE",
"418 69 OFFCURVE",
"417 71 CURVE",
"389 125 OFFCURVE",
"446 351 OFFCURVE",
"467 427 CURVE SMOOTH",
"473 454 OFFCURVE",
"414 482 OFFCURVE",
"375 482 CURVE SMOOTH",
"269 482 OFFCURVE",
"184 235 OFFCURVE",
"188 253 CURVE",
"209 434 OFFCURVE",
"256 688 OFFCURVE",
"241 699 CURVE SMOOTH",
"228 708 OFFCURVE",
"95 746 OFFCURVE",
"75 739 CURVE",
"75 739 OFFCURVE",
"55 704 OFFCURVE",
"71 695 CURVE SMOOTH",
"104 677 OFFCURVE",
"121 619 OFFCURVE",
"89 353 CURVE SMOOTH",
"73 217 OFFCURVE",
"46 45 OFFCURVE",
"44 34 CURVE SMOOTH",
"44 22 OFFCURVE",
"125 -3 OFFCURVE",
"168 -3 CURVE SMOOTH",
"183 -3 OFFCURVE",
"186 14 OFFCURVE",
"179 103 CURVE",
"208 260 OFFCURVE",
"304 357 OFFCURVE",
"331 371 CURVE",
"318 317 OFFCURVE",
"262 95 OFFCURVE",
"280 53 CURVE SMOOTH",
"291 27 OFFCURVE",
"356 -11 OFFCURVE",
"415 -2 CURVE SMOOTH",
"446 3 OFFCURVE",
"470 41 OFFCURVE",
"480 62 CURVE SMOOTH",
"488 76 OFFCURVE",
"498 92 OFFCURVE",
"487 97 CURVE SMOOTH"
);
},
{
closed = 1;
nodes = (
"465 106 OFFCURVE",
"463 109 OFFCURVE",
"458 97 CURVE SMOOTH",
"439 59 OFFCURVE",
"425 59 OFFCURVE",
"420 65 CURVE SMOOTH",
"420 67 OFFCURVE",
"418 69 OFFCURVE",
"417 71 CURVE",
"389 125 OFFCURVE",
"446 351 OFFCURVE",
"467 427 CURVE SMOOTH",
"473 454 OFFCURVE",
"414 482 OFFCURVE",
"375 482 CURVE SMOOTH",
"269 482 OFFCURVE",
"184 235 OFFCURVE",
"188 253 CURVE",
"209 434 OFFCURVE",
"256 688 OFFCURVE",
"241 699 CURVE SMOOTH",
"228 708 OFFCURVE",
"95 746 OFFCURVE",
"75 739 CURVE",
"75 739 OFFCURVE",
"55 704 OFFCURVE",
"71 695 CURVE SMOOTH",
"104 677 OFFCURVE",
"121 619 OFFCURVE",
"89 353 CURVE SMOOTH",
"73 217 OFFCURVE",
"46 45 OFFCURVE",
"44 34 CURVE SMOOTH",
"44 22 OFFCURVE",
"125 -3 OFFCURVE",
"168 -3 CURVE SMOOTH",
"183 -3 OFFCURVE",
"186 14 OFFCURVE",
"179 103 CURVE",
"208 260 OFFCURVE",
"304 357 OFFCURVE",
"331 371 CURVE",
"318 317 OFFCURVE",
"262 95 OFFCURVE",
"280 53 CURVE SMOOTH",
"291 27 OFFCURVE",
"356 -11 OFFCURVE",
"415 -2 CURVE SMOOTH",
"446 3 OFFCURVE",
"470 41 OFFCURVE",
"480 62 CURVE SMOOTH",
"488 76 OFFCURVE",
"498 92 OFFCURVE",
"487 97 CURVE SMOOTH"
);
}
);
};
layerId = "71FD7A9F-05F5-4D76-8D4F-547475A05E4C";
name = "Regular Italic";
paths = (
{
closed = 1;
nodes = (
"461 105 OFFCURVE",
"460 107 OFFCURVE",
"454 95 CURVE SMOOTH",
"441 70 OFFCURVE",
"429 53 OFFCURVE",
"416 65 CURVE SMOOTH",
"399 80 OFFCURVE",
"376 123 OFFCURVE",
"374 178 CURVE",
"464 218 OFFCURVE",
"476 405 OFFCURVE",
"464 441 CURVE SMOOTH",
"459 456 OFFCURVE",
"408 476 OFFCURVE",
"370 480 CURVE SMOOTH",
"302 487 OFFCURVE",
"209 319 OFFCURVE",
"192 265 CURVE",
"213 446 OFFCURVE",
"256 688 OFFCURVE",
"241 699 CURVE SMOOTH",
"228 708 OFFCURVE",
"95 746 OFFCURVE",
"75 739 CURVE",
"75 739 OFFCURVE",
"55 704 OFFCURVE",
"71 695 CURVE SMOOTH",
"104 677 OFFCURVE",
"124 619 OFFCURVE",
"91 353 CURVE SMOOTH",
"74 217 OFFCURVE",
"46 42 OFFCURVE",
"44 31 CURVE",
"44 19 OFFCURVE",
"127 -3 OFFCURVE",
"170 -3 CURVE SMOOTH",
"185 -3 OFFCURVE",
"187 19 OFFCURVE",
"180 108 CURVE",
"209 265 OFFCURVE",
"312 373 OFFCURVE",
"339 385 CURVE",
"348 373 OFFCURVE",
"349 237 OFFCURVE",
"309 202 CURVE SMOOTH",
"298 193 OFFCURVE",
"282 185 OFFCURVE",
"265 183 CURVE",
"264 135 OFFCURVE",
"276 42 OFFCURVE",
"289 31 CURVE",
"309 19 OFFCURVE",
"357 -8 OFFCURVE",
"405 -1 CURVE SMOOTH",
"440 4 OFFCURVE",
"463 26 OFFCURVE",
"478 56 CURVE SMOOTH",
"485 70 OFFCURVE",
"495 89 OFFCURVE",
"484 94 CURVE SMOOTH"
);
}
);
width = 525;
}
);
leftKerningGroup = l;
leftMetricsKey = h;
rightKerningGroup = i;
rightMetricsKey = a;
unicode = 006B;
},
{
glyphname = l;
lastChange = "2015-11-08 17:18:53 +0000";
layers = (
{
guideLines = (
{
angle = -18;
position = "{111, 0}";
}
);
layerId = "71FD7A9F-05F5-4D76-8D4F-547475A05E4C";
name = "Regular Italic";
paths = (
{
closed = 1;
nodes = (
"225 -2 OFFCURVE",
"252 37 OFFCURVE",
"268 85 CURVE",
"271 97 OFFCURVE",
"257 99 OFFCURVE",
"241 105 CURVE SMOOTH",
"235 107 OFFCURVE",
"232 104 OFFCURVE",
"229 97 CURVE SMOOTH",
"219 74 OFFCURVE",
"211 64 OFFCURVE",
"203 64 CURVE SMOOTH",
"195 64 OFFCURVE",
"180 81 OFFCURVE",
"179 127 CURVE SMOOTH",
"178 183 OFFCURVE",
"198 299 OFFCURVE",
"214 431 CURVE SMOOTH",
"225 520 OFFCURVE",
"254 675 OFFCURVE",
"241 698 CURVE SMOOTH",
"232 711 OFFCURVE",
"88 746 OFFCURVE",
"76 739 CURVE",
"76 739 OFFCURVE",
"53 702 OFFCURVE",
"71 695 CURVE SMOOTH",
"98 685 OFFCURVE",
"109 637 OFFCURVE",
"107 559 CURVE SMOOTH",
"105 493 OFFCURVE",
"99 442 OFFCURVE",
"84 326 CURVE SMOOTH",
"72 234 OFFCURVE",
"40 54 OFFCURVE",
"64 36 CURVE SMOOTH",
"72 30 OFFCURVE",
"129 -7 OFFCURVE",
"186 -4 CURVE SMOOTH"
);
}
);
width = 294;
}
);
leftKerningGroup = l;
leftMetricsKey = "=i-15";
rightKerningGroup = i;
rightMetricsKey = i;
unicode = 006C;
},
{
glyphname = m;
lastChange = "2015-11-08 16:52:06 +0000";
layers = (
{
guideLines = (
{
angle = -18;
position = "{-88, 0}";
},
{
position = "{1097, 369}";
}
);
layerId = "71FD7A9F-05F5-4D76-8D4F-547475A05E4C";
name = "Regular Italic";
paths = (
{
closed = 1;
nodes = (
"684 106 OFFCURVE",
"683 109 OFFCURVE",
"678 98 CURVE SMOOTH",
"659 60 OFFCURVE",
"646 59 OFFCURVE",
"642 66 CURVE SMOOTH",
"640 68 OFFCURVE",
"639 70 OFFCURVE",
"638 73 CURVE",
"611 125 OFFCURVE",
"668 351 OFFCURVE",
"686 428 CURVE SMOOTH",
"693 455 OFFCURVE",
"636 482 OFFCURVE",
"604 482 CURVE SMOOTH",
"506 482 OFFCURVE",
"437 306 OFFCURVE",
"422 265 CURVE",
"433 335 OFFCURVE",
"445 389 OFFCURVE",
"454 429 CURVE SMOOTH",
"460 458 OFFCURVE",
"409 482 OFFCURVE",
"371 482 CURVE SMOOTH",
"264 482 OFFCURVE",
"198 251 OFFCURVE",
"201 268 CURVE SMOOTH",
"202 277 OFFCURVE",
"224 432 OFFCURVE",
"214 443 CURVE SMOOTH",
"204 453 OFFCURVE",
"73 487 OFFCURVE",
"61 480 CURVE",
"61 480 OFFCURVE",
"42 438 OFFCURVE",
"58 430 CURVE SMOOTH",
"73 422 OFFCURVE",
"94 412 OFFCURVE",
"91 345 CURVE SMOOTH",
"83 211 OFFCURVE",
"57 45 OFFCURVE",
"56 33 CURVE SMOOTH",
"55 22 OFFCURVE",
"133 -3 OFFCURVE",
"179 -3 CURVE SMOOTH",
"194 -3 OFFCURVE",
"197 13 OFFCURVE",
"190 103 CURVE",
"218 259 OFFCURVE",
"301 368 OFFCURVE",
"327 378 CURVE",
"325 369 OFFCURVE",
"322 354 OFFCURVE",
"319 332 CURVE",
"293 199 OFFCURVE",
"278 45 OFFCURVE",
"277 33 CURVE SMOOTH",
"277 22 OFFCURVE",
"352 -3 OFFCURVE",
"397 -3 CURVE SMOOTH",
"413 -3 OFFCURVE",
"416 13 OFFCURVE",
"409 103 CURVE",
"437 259 OFFCURVE",
"535 368 OFFCURVE",
"559 378 CURVE",
"549 325 OFFCURVE",
"492 95 OFFCURVE",
"508 53 CURVE SMOOTH",
"520 27 OFFCURVE",
"579 -11 OFFCURVE",
"635 -2 CURVE SMOOTH",
"667 3 OFFCURVE",
"689 40 OFFCURVE",
"699 63 CURVE SMOOTH",
"705 77 OFFCURVE",
"716 93 OFFCURVE",
"706 97 CURVE SMOOTH"
);
}
);
width = 736;
}
);
leftMetricsKey = i;
rightMetricsKey = i;
unicode = 006D;
},
{
glyphname = n;
lastChange = "2015-11-08 17:19:38 +0000";
layers = (
{
background = {
paths = (
{
closed = 1;
nodes = (
"474 106 OFFCURVE",
"473 109 OFFCURVE",
"468 98 CURVE SMOOTH",
"449 60 OFFCURVE",
"436 59 OFFCURVE",
"432 66 CURVE SMOOTH",
"430 68 OFFCURVE",
"429 70 OFFCURVE",
"428 73 CURVE",
"401 125 OFFCURVE",
"458 351 OFFCURVE",
"476 428 CURVE SMOOTH",
"483 455 OFFCURVE",
"426 482 OFFCURVE",
"394 482 CURVE SMOOTH",
"296 482 OFFCURVE",
"222 287 OFFCURVE",
"207 246 CURVE",
"218 316 OFFCURVE",
"235 389 OFFCURVE",
"244 429 CURVE SMOOTH",
"250 458 OFFCURVE",
"199 482 OFFCURVE",
"161 482 CURVE SMOOTH",
"48 482 OFFCURVE",
"-16 229 OFFCURVE",
"-13 246 CURVE SMOOTH",
"-12 255 OFFCURVE",
"14 432 OFFCURVE",
"4 443 CURVE SMOOTH",
"-6 453 OFFCURVE",
"-137 487 OFFCURVE",
"-149 480 CURVE",
"-149 480 OFFCURVE",
"-168 438 OFFCURVE",
"-152 430 CURVE SMOOTH",
"-137 422 OFFCURVE",
"-116 412 OFFCURVE",
"-119 345 CURVE SMOOTH",
"-127 211 OFFCURVE",
"-153 45 OFFCURVE",
"-154 33 CURVE SMOOTH",
"-155 22 OFFCURVE",
"-77 -3 OFFCURVE",
"-31 -3 CURVE SMOOTH",
"-16 -3 OFFCURVE",
"-13 14 OFFCURVE",
"-20 104 CURVE",
"8 260 OFFCURVE",
"95 381 OFFCURVE",
"121 391 CURVE",
"119 382 OFFCURVE",
"116 367 OFFCURVE",
"111 342 CURVE",
"83 210 OFFCURVE",
"68 45 OFFCURVE",
"67 33 CURVE SMOOTH",
"67 22 OFFCURVE",
"142 -3 OFFCURVE",
"187 -3 CURVE SMOOTH",
"203 -3 OFFCURVE",
"206 14 OFFCURVE",
"199 104 CURVE",
"227 260 OFFCURVE",
"327 381 OFFCURVE",
"351 391 CURVE",
"341 338 OFFCURVE",
"282 95 OFFCURVE",
"298 53 CURVE SMOOTH",
"310 27 OFFCURVE",
"369 -11 OFFCURVE",
"425 -2 CURVE SMOOTH",
"457 3 OFFCURVE",
"479 40 OFFCURVE",
"489 63 CURVE SMOOTH",
"495 77 OFFCURVE",
"506 93 OFFCURVE",
"496 97 CURVE SMOOTH"
);
}
);
};
guideLines = (
{
angle = -12;
position = "{365, 29}";
},
{
position = "{890, 369}";
}
);
layerId = "71FD7A9F-05F5-4D76-8D4F-547475A05E4C";
name = "Regular Italic";
paths = (
{
closed = 1;
nodes = (
"477 106 OFFCURVE",
"475 109 OFFCURVE",
"470 97 CURVE SMOOTH",
"451 59 OFFCURVE",
"437 59 OFFCURVE",
"432 65 CURVE SMOOTH",
"432 67 OFFCURVE",
"430 69 OFFCURVE",
"429 71 CURVE",
"401 125 OFFCURVE",
"458 351 OFFCURVE",
"479 427 CURVE SMOOTH",
"485 454 OFFCURVE",
"426 482 OFFCURVE",
"387 482 CURVE SMOOTH",
"270 482 OFFCURVE",
"197 243 OFFCURVE",
"201 261 CURVE SMOOTH",
"202 270 OFFCURVE",
"227 433 OFFCURVE",
"217 444 CURVE SMOOTH",
"206 455 OFFCURVE",
"75 487 OFFCURVE",
"61 480 CURVE",
"61 480 OFFCURVE",
"41 437 OFFCURVE",
"58 429 CURVE SMOOTH",
"74 421 OFFCURVE",
"97 412 OFFCURVE",
"93 345 CURVE SMOOTH",
"84 210 OFFCURVE",
"58 45 OFFCURVE",
"56 34 CURVE SMOOTH",
"56 22 OFFCURVE",
"137 -3 OFFCURVE",
"180 -3 CURVE SMOOTH",
"195 -3 OFFCURVE",
"198 14 OFFCURVE",
"191 103 CURVE",
"219 255 OFFCURVE",
"316 357 OFFCURVE",
"343 371 CURVE",
"330 317 OFFCURVE",
"274 95 OFFCURVE",
"292 53 CURVE SMOOTH",
"303 27 OFFCURVE",
"368 -11 OFFCURVE",
"427 -2 CURVE SMOOTH",
"458 3 OFFCURVE",
"482 41 OFFCURVE",
"492 62 CURVE SMOOTH",
"500 76 OFFCURVE",
"510 92 OFFCURVE",
"499 97 CURVE SMOOTH"
);
}
);
width = 530;
}
);
leftKerningGroup = i;
leftMetricsKey = i;
rightKerningGroup = i;
rightMetricsKey = i;
unicode = 006E;
},
{
glyphname = o;
lastChange = "2015-11-08 17:18:19 +0000";
layers = (
{
background = {
paths = (
{
closed = 1;
nodes = (
"112 20 OFFCURVE",
"165 -18 OFFCURVE",
"275 -1 CURVE",
"458 46 OFFCURVE",
"502 303 OFFCURVE",
"405 422 CURVE SMOOTH",
"359 478 OFFCURVE",
"282 503 OFFCURVE",
"198 475 CURVE SMOOTH",
"8 412 OFFCURVE",
"-3 166 OFFCURVE",
"82 58 CURVE SMOOTH"
);
},
{
closed = 1;
nodes = (
"264 403 OFFCURVE",
"289 384 OFFCURVE",
"309 341 CURVE SMOOTH",
"350 251 OFFCURVE",
"339 123 OFFCURVE",
"259 75 CURVE",
"226 75 OFFCURVE",
"198 89 OFFCURVE",
"176 140 CURVE SMOOTH",
"139 224 OFFCURVE",
"141 352 OFFCURVE",
"225 403 CURVE"
);
}
);
};
layerId = "71FD7A9F-05F5-4D76-8D4F-547475A05E4C";
name = "Regular Italic";
paths = (
{
closed = 1;
nodes = (
"374 461 OFFCURVE",
"321 492 OFFCURVE",
"211 475 CURVE",
"28 428 OFFCURVE",
"-16 178 OFFCURVE",
"81 59 CURVE SMOOTH",
"127 3 OFFCURVE",
"204 -21 OFFCURVE",
"288 7 CURVE SMOOTH",
"478 70 OFFCURVE",
"489 315 OFFCURVE",
"404 423 CURVE SMOOTH"
);
},
{
closed = 1;
nodes = (
"222 77 OFFCURVE",
"195 96 OFFCURVE",
"175 139 CURVE SMOOTH",
"134 229 OFFCURVE",
"147 357 OFFCURVE",
"227 405 CURVE",
"260 405 OFFCURVE",
"288 391 OFFCURVE",
"310 340 CURVE SMOOTH",
"347 256 OFFCURVE",
"345 128 OFFCURVE",
"261 77 CURVE"
);
}
);
width = 483;
}
);
leftKerningGroup = o;
rightKerningGroup = o;
unicode = 006F;
},
{
glyphname = p;
lastChange = "2015-11-08 17:19:24 +0000";
layers = (
{
background = {
paths = (
{
closed = 1;
nodes = (
"56 478 OFFCURVE",
"28 443 OFFCURVE",
"12 395 CURVE",
"8 383 OFFCURVE",
"22 381 OFFCURVE",
"38 375 CURVE SMOOTH",
"44 373 OFFCURVE",
"47 376 OFFCURVE",
"50 383 CURVE SMOOTH",
"61 406 OFFCURVE",
"69 416 OFFCURVE",
"77 416 CURVE SMOOTH",
"85 416 OFFCURVE",
"100 399 OFFCURVE",
"100 353 CURVE SMOOTH",
"100 297 OFFCURVE",
"82 180 OFFCURVE",
"63 48 CURVE SMOOTH",
"50 -41 OFFCURVE",
"15 -195 OFFCURVE",
"28 -218 CURVE SMOOTH",
"37 -231 OFFCURVE",
"187 -265 OFFCURVE",
"200 -258 CURVE",
"200 -258 OFFCURVE",
"223 -222 OFFCURVE",
"205 -214 CURVE SMOOTH",
"190 -206 OFFCURVE",
"171 -183 OFFCURVE",
"165 -106 CURVE SMOOTH",
"160 -40 OFFCURVE",
"168 38 OFFCURVE",
"187 154 CURVE SMOOTH",
"204 245 OFFCURVE",
"236 422 OFFCURVE",
"213 440 CURVE SMOOTH",
"205 446 OFFCURVE",
"150 492 OFFCURVE",
"95 484 CURVE SMOOTH"
);
},
{
closed = 1;
nodes = (
"218 403 OFFCURVE",
"171 203 OFFCURVE",
"163 168 CURVE",
"163 168 OFFCURVE",
"171 176 OFFCURVE",
"190 169 CURVE",
"199 232 OFFCURVE",
"293 364 OFFCURVE",
"309 371 CURVE",
"316 371 OFFCURVE",
"326 365 OFFCURVE",
"337 342 CURVE SMOOTH",
"374 264 OFFCURVE",
"371 112 OFFCURVE",
"292 63 CURVE",
"292 63 LINE SMOOTH",
"292 63 OFFCURVE",
"219 69 OFFCURVE",
"179 153 CURVE",
"179 153 OFFCURVE",
"114 120 OFFCURVE",
"114 64 CURVE",
"145 23 OFFCURVE",
"229 -10 OFFCURVE",
"312 -3 CURVE",
"486 47 OFFCURVE",
"542 309 OFFCURVE",
"435 439 CURVE SMOOTH",
"402 479 OFFCURVE",
"373 484 OFFCURVE",
"335 480 CURVE"
);
}
);
};
guideLines = (
{
angle = -18;
position = "{774, -224}";
}
);
layerId = "71FD7A9F-05F5-4D76-8D4F-547475A05E4C";
name = "Regular Italic";
paths = (
{
closed = 1;
nodes = (
"402 479 OFFCURVE",
"368 484 OFFCURVE",
"333 481 CURVE",
"274 440 OFFCURVE",
"233 359 OFFCURVE",
"207 299 CURVE",
"210 317 OFFCURVE",
"228 439 OFFCURVE",
"220 447 CURVE SMOOTH",
"208 459 OFFCURVE",
"72 484 OFFCURVE",
"61 479 CURVE",
"61 479 OFFCURVE",
"42 435 OFFCURVE",
"57 425 CURVE SMOOTH",
"72 418 OFFCURVE",
"95 405 OFFCURVE",
"94 354 CURVE SMOOTH",
"93 296 OFFCURVE",
"80 145 OFFCURVE",
"67 55 CURVE SMOOTH",
"49 -67 OFFCURVE",
"23 -195 OFFCURVE",
"30 -203 CURVE SMOOTH",
"42 -213 OFFCURVE",
"175 -262 OFFCURVE",
"188 -252 CURVE",
"188 -252 OFFCURVE",
"212 -207 OFFCURVE",
"197 -201 CURVE SMOOTH",
"179 -192 OFFCURVE",
"164 -134 OFFCURVE",
"163 -86 CURVE SMOOTH",
"162 -45 OFFCURVE",
"164 -21 OFFCURVE",
"168 28 CURVE",
"213 4 OFFCURVE",
"261 -6 OFFCURVE",
"311 -4 CURVE",
"483 46 OFFCURVE",
"543 306 OFFCURVE",
"434 440 CURVE SMOOTH"
);
},
{
closed = 1;
nodes = (
"292 63 LINE SMOOTH",
"292 63 OFFCURVE",
"234 68 OFFCURVE",
"185 138 CURVE",
"190 168 LINE",
"198 226 OFFCURVE",
"293 366 OFFCURVE",
"311 372 CURVE",
"322 367 OFFCURVE",
"332 354 OFFCURVE",
"341 332 CURVE SMOOTH",
"374 250 OFFCURVE",
"370 113 OFFCURVE",
"292 63 CURVE"
);
}
);
width = 511;
}
);
leftKerningGroup = i;
leftMetricsKey = i;
rightKerningGroup = o;
rightMetricsKey = o;
unicode = 0070;
},
{
glyphname = q;
lastChange = "2015-11-06 18:36:09 +0000";
layers = (
{
background = {
paths = (
{
closed = 1;
nodes = (
"402 479 OFFCURVE",
"368 484 OFFCURVE",
"333 481 CURVE",
"274 440 OFFCURVE",
"233 359 OFFCURVE",
"207 299 CURVE",
"210 317 OFFCURVE",
"228 439 OFFCURVE",
"220 447 CURVE SMOOTH",
"208 459 OFFCURVE",
"72 484 OFFCURVE",
"61 479 CURVE",
"61 479 OFFCURVE",
"42 435 OFFCURVE",
"57 425 CURVE SMOOTH",
"72 418 OFFCURVE",
"95 405 OFFCURVE",
"94 354 CURVE SMOOTH",
"93 296 OFFCURVE",
"79 145 OFFCURVE",
"66 55 CURVE SMOOTH",
"48 -73 OFFCURVE",
"21 -204 OFFCURVE",
"28 -212 CURVE SMOOTH",
"40 -222 OFFCURVE",
"178 -308 OFFCURVE",
"191 -298 CURVE",
"191 -298 OFFCURVE",
"215 -253 OFFCURVE",
"200 -247 CURVE SMOOTH",
"182 -238 OFFCURVE",
"168 -178 OFFCURVE",
"166 -130 CURVE SMOOTH",
"164 -89 OFFCURVE",
"165 -44 OFFCURVE",
"169 28 CURVE",
"214 4 OFFCURVE",
"261 -6 OFFCURVE",
"311 -4 CURVE",
"483 46 OFFCURVE",
"543 306 OFFCURVE",
"434 440 CURVE SMOOTH"
);
},
{
closed = 1;
nodes = (
"292 63 LINE SMOOTH",
"292 63 OFFCURVE",
"234 68 OFFCURVE",
"185 138 CURVE",
"190 168 LINE",
"198 226 OFFCURVE",
"293 366 OFFCURVE",
"311 372 CURVE",
"322 367 OFFCURVE",
"332 354 OFFCURVE",
"341 332 CURVE SMOOTH",
"374 250 OFFCURVE",
"370 113 OFFCURVE",
"292 63 CURVE"
);
}
);
};
layerId = "71FD7A9F-05F5-4D76-8D4F-547475A05E4C";
name = "Regular Italic";
paths = (
{
closed = 1;
nodes = (
"386 -188 OFFCURVE",
"371 -133 OFFCURVE",
"373 -85 CURVE SMOOTH",
"376 -22 OFFCURVE",
"400 291 OFFCURVE",
"457 457 CURVE",
"457 463 OFFCURVE",
"432 474 OFFCURVE",
"421 476 CURVE SMOOTH",
"404 482 OFFCURVE",
"397 474 OFFCURVE",
"389 454 CURVE SMOOTH",
"385 447 OFFCURVE",
"383 444 OFFCURVE",
"379 438 CURVE",
"348 474 OFFCURVE",
"276 488 OFFCURVE",
"201 480 CURVE",
"23 432 OFFCURVE",
"-34 171 OFFCURVE",
"72 34 CURVE SMOOTH",
"105 -3 OFFCURVE",
"141 -10 OFFCURVE",
"177 -3 CURVE",
"223 28 OFFCURVE",
"261 78 OFFCURVE",
"287 133 CURVE",
"265 -20 OFFCURVE",
"231 -192 OFFCURVE",
"238 -199 CURVE SMOOTH",
"251 -211 OFFCURVE",
"380 -258 OFFCURVE",
"392 -252 CURVE",
"392 -252 OFFCURVE",
"420 -209 OFFCURVE",
"399 -196 CURVE SMOOTH"
);
},
{
closed = 1;
nodes = (
"194 100 OFFCURVE",
"184 106 OFFCURVE",
"172 133 CURVE SMOOTH",
"137 210 OFFCURVE",
"141 365 OFFCURVE",
"220 414 CURVE",
"220 414 LINE",
"220 414 OFFCURVE",
"266 410 OFFCURVE",
"317 347 CURVE",
"317 320 OFFCURVE",
"315 291 OFFCURVE",
"311 265 CURVE",
"285 197 OFFCURVE",
"216 106 OFFCURVE",
"201 100 CURVE"
);
}
);
width = 478;
}
);
leftMetricsKey = o;
rightMetricsKey = o;
unicode = 0071;
},
{
glyphname = r;
lastChange = "2015-11-06 20:48:01 +0000";
layers = (
{
background = {
paths = (
{
closed = 1;
nodes = (
"83 489 OFFCURVE",
"207 456 OFFCURVE",
"218 445 CURVE SMOOTH",
"233 428 OFFCURVE",
"155 126 OFFCURVE",
"193 68 CURVE SMOOTH",
"198 60 OFFCURVE",
"214 60 OFFCURVE",
"231 97 CURVE SMOOTH",
"236 109 OFFCURVE",
"242 107 OFFCURVE",
"264 98 CURVE SMOOTH",
"275 93 OFFCURVE",
"265 78 OFFCURVE",
"257 58 CURVE SMOOTH",
"247 35 OFFCURVE",
"216 -4 OFFCURVE",
"182 -5 CURVE SMOOTH",
"142 -6 OFFCURVE",
"93 18 OFFCURVE",
"66 37 CURVE SMOOTH",
"38 56 OFFCURVE",
"82 246 OFFCURVE",
"95 346 CURVE SMOOTH",
"100 385 OFFCURVE",
"101 423 OFFCURVE",
"64 435 CURVE SMOOTH",
"47 440 OFFCURVE",
"69 481 OFFCURVE",
"69 481 CURVE"
);
}
);
};
guideLines = (
{
position = "{-1194, 367}";
}
);
layerId = "71FD7A9F-05F5-4D76-8D4F-547475A05E4C";
name = "Regular Italic";
paths = (
{
closed = 1;
nodes = (
"42 439 OFFCURVE",
"61 481 OFFCURVE",
"61 481 CURVE",
"64 487 OFFCURVE",
"212 459 OFFCURVE",
"222 442 CURVE SMOOTH",
"231 427 OFFCURVE",
"215 315 OFFCURVE",
"207 259 CURVE",
"217 304 OFFCURVE",
"251 378 OFFCURVE",
"313 452 CURVE",
"320 458 OFFCURVE",
"358 483 OFFCURVE",
"386 482 CURVE SMOOTH",
"419 481 OFFCURVE",
"448 465 OFFCURVE",
"457 440 CURVE",
"456 428 OFFCURVE",
"416 329 OFFCURVE",
"394 301 CURVE",
"379 328 OFFCURVE",
"354 350 OFFCURVE",
"323 356 CURVE",
"294 330 OFFCURVE",
"239 266 OFFCURVE",
"199 113 CURVE",
"204 44 OFFCURVE",
"203 -3 OFFCURVE",
"187 -4 CURVE SMOOTH",
"149 -6 OFFCURVE",
"57 17 OFFCURVE",
"60 37 CURVE SMOOTH",
"66 79 OFFCURVE",
"96 313 OFFCURVE",
"97 344 CURVE SMOOTH",
"99 395 OFFCURVE",
"88 411 OFFCURVE",
"57 430 CURVE SMOOTH"
);
}
);
width = 446;
}
);
leftKerningGroup = i;
leftMetricsKey = i;
rightMetricsKey = c;
unicode = 0072;
},
{
glyphname = t;
lastChange = "2015-11-06 20:50:00 +0000";
layers = (
{
background = {
paths = (
{
closed = 1;
nodes = (
"410 106 OFFCURVE",
"408 109 OFFCURVE",
"403 97 CURVE SMOOTH",
"384 59 OFFCURVE",
"370 59 OFFCURVE",
"365 65 CURVE SMOOTH",
"365 67 OFFCURVE",
"363 69 OFFCURVE",
"362 71 CURVE",
"334 125 OFFCURVE",
"391 351 OFFCURVE",
"412 427 CURVE SMOOTH",
"418 454 OFFCURVE",
"359 482 OFFCURVE",
"320 482 CURVE SMOOTH",
"203 482 OFFCURVE",
"128 228 OFFCURVE",
"132 246 CURVE SMOOTH",
"133 255 OFFCURVE",
"160 433 OFFCURVE",
"150 444 CURVE SMOOTH",
"139 455 OFFCURVE",
"8 487 OFFCURVE",
"-6 480 CURVE",
"-6 480 OFFCURVE",
"-26 437 OFFCURVE",
"-9 429 CURVE SMOOTH",
"7 421 OFFCURVE",
"30 412 OFFCURVE",
"26 345 CURVE SMOOTH",
"17 210 OFFCURVE",
"-9 45 OFFCURVE",
"-11 34 CURVE SMOOTH",
"-11 22 OFFCURVE",
"70 -3 OFFCURVE",
"113 -3 CURVE SMOOTH",
"128 -3 OFFCURVE",
"131 14 OFFCURVE",
"124 103 CURVE",
"153 260 OFFCURVE",
"249 357 OFFCURVE",
"276 371 CURVE",
"263 317 OFFCURVE",
"207 95 OFFCURVE",
"225 53 CURVE SMOOTH",
"236 27 OFFCURVE",
"301 -11 OFFCURVE",
"360 -2 CURVE SMOOTH",
"391 3 OFFCURVE",
"415 41 OFFCURVE",
"425 62 CURVE SMOOTH",
"433 76 OFFCURVE",
"443 92 OFFCURVE",
"432 97 CURVE SMOOTH"
);
}
);
};
layerId = "71FD7A9F-05F5-4D76-8D4F-547475A05E4C";
name = "Regular Italic";
paths = (
{
closed = 1;
nodes = (
"321 483 OFFCURVE",
"270 478 OFFCURVE",
"229 478 CURVE",
"235 543 OFFCURVE",
"245 594 OFFCURVE",
"242 600 CURVE SMOOTH",
"230 612 OFFCURVE",
"168 626 OFFCURVE",
"162 616 CURVE SMOOTH",
"159 610 OFFCURVE",
"157 585 OFFCURVE",
"150 546 CURVE SMOOTH",
"141 499 OFFCURVE",
"133 472 OFFCURVE",
"83 472 CURVE SMOOTH",
"67 472 OFFCURVE",
"62 472 OFFCURVE",
"59 472 CURVE",
"50 469 OFFCURVE",
"49 411 OFFCURVE",
"56 411 CURVE SMOOTH",
"59 411 OFFCURVE",
"87 410 OFFCURVE",
"106 411 CURVE",
"80 194 OFFCURVE",
"55 62 OFFCURVE",
"74 47 CURVE SMOOTH",
"80 40 OFFCURVE",
"148 -8 OFFCURVE",
"208 -2 CURVE SMOOTH",
"246 2 OFFCURVE",
"275 56 OFFCURVE",
"278 62 CURVE SMOOTH",
"285 78 OFFCURVE",
"291 94 OFFCURVE",
"282 97 CURVE SMOOTH",
"258 107 OFFCURVE",
"258 110 OFFCURVE",
"252 97 CURVE SMOOTH",
"233 59 OFFCURVE",
"221 62 OFFCURVE",
"214 69 CURVE",
"181 102 OFFCURVE",
"210 291 OFFCURVE",
"224 403 CURVE",
"265 403 OFFCURVE",
"308 400 OFFCURVE",
"311 400 CURVE SMOOTH",
"321 400 OFFCURVE",
"330 480 OFFCURVE",
"324 480 CURVE"
);
}
);
width = 328;
}
);
leftKerningGroup = i;
leftMetricsKey = i;
rightMetricsKey = i;
unicode = 0074;
},
{
glyphname = u;
lastChange = "2015-11-06 18:53:57 +0000";
layers = (
{
background = {
paths = (
{
closed = 1;
nodes = (
"50 372 OFFCURVE",
"52 369 OFFCURVE",
"57 381 CURVE SMOOTH",
"76 419 OFFCURVE",
"90 419 OFFCURVE",
"95 413 CURVE SMOOTH",
"95 411 OFFCURVE",
"97 409 OFFCURVE",
"98 407 CURVE",
"126 353 OFFCURVE",
"69 127 OFFCURVE",
"48 51 CURVE SMOOTH",
"42 24 OFFCURVE",
"101 -4 OFFCURVE",
"140 -4 CURVE SMOOTH",
"257 -4 OFFCURVE",
"332 250 OFFCURVE",
"328 232 CURVE SMOOTH",
"327 223 OFFCURVE",
"300 45 OFFCURVE",
"310 34 CURVE SMOOTH",
"321 23 OFFCURVE",
"452 -9 OFFCURVE",
"466 -2 CURVE",
"466 -2 OFFCURVE",
"486 41 OFFCURVE",
"469 49 CURVE SMOOTH",
"453 57 OFFCURVE",
"430 66 OFFCURVE",
"434 133 CURVE SMOOTH",
"443 268 OFFCURVE",
"469 433 OFFCURVE",
"471 444 CURVE SMOOTH",
"471 456 OFFCURVE",
"390 481 OFFCURVE",
"347 481 CURVE SMOOTH",
"332 481 OFFCURVE",
"329 464 OFFCURVE",
"336 375 CURVE",
"307 218 OFFCURVE",
"211 121 OFFCURVE",
"184 107 CURVE",
"197 161 OFFCURVE",
"253 383 OFFCURVE",
"235 425 CURVE SMOOTH",
"224 451 OFFCURVE",
"159 489 OFFCURVE",
"100 480 CURVE SMOOTH",
"69 475 OFFCURVE",
"45 437 OFFCURVE",
"35 416 CURVE SMOOTH",
"27 402 OFFCURVE",
"17 386 OFFCURVE",
"28 381 CURVE SMOOTH"
);
}
);
};
layerId = "71FD7A9F-05F5-4D76-8D4F-547475A05E4C";
name = "Regular Italic";
paths = (
{
closed = 1;
nodes = (
"177 154 OFFCURVE",
"261 409 OFFCURVE",
"221 443 CURVE",
"211 454 OFFCURVE",
"89 485 OFFCURVE",
"62 480 CURVE",
"62 480 OFFCURVE",
"41 434 OFFCURVE",
"58 426 CURVE SMOOTH",
"74 418 OFFCURVE",
"110 409 OFFCURVE",
"104 345 CURVE SMOOTH",
"88 169 OFFCURVE",
"42 74 OFFCURVE",
"66 32 CURVE",
"90 15 OFFCURVE",
"137 -5 OFFCURVE",
"160 -5 CURVE SMOOTH",
"236 -5 OFFCURVE",
"322 172 OFFCURVE",
"349 287 CURVE SMOOTH",
"351 297 OFFCURVE",
"350 430 OFFCURVE",
"338 375 CURVE SMOOTH",
"304 218 OFFCURVE",
"190 89 OFFCURVE",
"187 104 CURVE"
);
},
{
closed = 1;
nodes = (
"461 461 OFFCURVE",
"395 479 OFFCURVE",
"347 479 CURVE",
"326 471 OFFCURVE",
"340 354 OFFCURVE",
"342 346 CURVE",
"332 307 OFFCURVE",
"306 93 OFFCURVE",
"306 45 CURVE SMOOTH",
"305 17 OFFCURVE",
"400 -6 OFFCURVE",
"439 0 CURVE SMOOTH",
"470 5 OFFCURVE",
"491 41 OFFCURVE",
"501 62 CURVE SMOOTH",
"509 76 OFFCURVE",
"519 92 OFFCURVE",
"509 97 CURVE SMOOTH",
"487 106 OFFCURVE",
"485 109 OFFCURVE",
"480 97 CURVE SMOOTH",
"460 59 OFFCURVE",
"446 59 OFFCURVE",
"441 65 CURVE SMOOTH",
"441 67 OFFCURVE",
"439 69 OFFCURVE",
"438 71 CURVE",
"415 111 OFFCURVE",
"458 379 OFFCURVE",
"475 444 CURVE"
);
}
);
width = 554;
}
);
leftMetricsKey = n;
rightMetricsKey = n;
unicode = 0075;
},
{
glyphname = v;
lastChange = "2015-11-06 20:46:03 +0000";
layers = (
{
background = {
paths = (
{
closed = 1;
nodes = (
"651 463 OFFCURVE",
"549 482 OFFCURVE",
"539 480 CURVE",
"587 341 OFFCURVE",
"583 135 OFFCURVE",
"481 68 CURVE",
"435 105 OFFCURVE",
"417 195 OFFCURVE",
"423 265 CURVE",
"436 315 OFFCURVE",
"454 446 OFFCURVE",
"448 453 CURVE",
"441 462 OFFCURVE",
"355 477 OFFCURVE",
"323 481 CURVE",
"306 411 OFFCURVE",
"302 321 OFFCURVE",
"313 237 CURVE",
"294 127 OFFCURVE",
"261 87 OFFCURVE",
"223 61 CURVE",
"125 128 OFFCURVE",
"191 386 OFFCURVE",
"228 443 CURVE",
"197 473 OFFCURVE",
"75 484 OFFCURVE",
"48 482 CURVE",
"48 482 OFFCURVE",
"25 399 OFFCURVE",
"39 375 CURVE",
"72 391 OFFCURVE",
"115 395 OFFCURVE",
"132 396 CURVE",
"66 335 OFFCURVE",
"-56 77 OFFCURVE",
"151 5 CURVE SMOOTH",
"174 -3 OFFCURVE",
"202 -5 OFFCURVE",
"236 -5 CURVE",
"289 19 OFFCURVE",
"325 55 OFFCURVE",
"351 99 CURVE",
"369 57 OFFCURVE",
"392 25 OFFCURVE",
"422 10 CURVE SMOOTH",
"448 -4 OFFCURVE",
"474 -4 OFFCURVE",
"494 -4 CURVE",
"678 38 OFFCURVE",
"709 320 OFFCURVE",
"655 453 CURVE SMOOTH"
);
}
);
};
layerId = "71FD7A9F-05F5-4D76-8D4F-547475A05E4C";
name = "Regular Italic";
paths = (
{
closed = 1;
nodes = (
"131 136 OFFCURVE",
"189 386 OFFCURVE",
"227 443 CURVE",
"196 473 OFFCURVE",
"79 484 OFFCURVE",
"52 482 CURVE",
"52 482 OFFCURVE",
"28 399 OFFCURVE",
"41 375 CURVE",
"75 391 OFFCURVE",
"118 395 OFFCURVE",
"135 396 CURVE",
"80 364 OFFCURVE",
"-57 85 OFFCURVE",
"146 10 CURVE SMOOTH",
"173 0 OFFCURVE",
"202 -5 OFFCURVE",
"236 -5 CURVE",
"346 24 OFFCURVE",
"491 190 OFFCURVE",
"427 453 CURVE SMOOTH",
"425 463 OFFCURVE",
"330 482 OFFCURVE",
"306 480 CURVE",
"355 365 OFFCURVE",
"335 141 OFFCURVE",
"220 69 CURVE"
);
}
);
width = 460;
}
);
leftMetricsKey = "=i-10";
rightMetricsKey = o;
unicode = 0076;
},
{
glyphname = w;
lastChange = "2015-11-08 17:19:14 +0000";
layers = (
{
background = {
paths = (
{
closed = 1;
nodes = (
"676 106 OFFCURVE",
"675 109 OFFCURVE",
"670 98 CURVE SMOOTH",
"651 60 OFFCURVE",
"638 59 OFFCURVE",
"634 66 CURVE SMOOTH",
"632 68 OFFCURVE",
"631 70 OFFCURVE",
"630 73 CURVE",
"603 125 OFFCURVE",
"660 351 OFFCURVE",
"678 428 CURVE SMOOTH",
"685 455 OFFCURVE",
"628 482 OFFCURVE",
"596 482 CURVE SMOOTH",
"498 482 OFFCURVE",
"429 306 OFFCURVE",
"414 265 CURVE",
"425 335 OFFCURVE",
"437 389 OFFCURVE",
"446 429 CURVE SMOOTH",
"452 458 OFFCURVE",
"401 482 OFFCURVE",
"363 482 CURVE SMOOTH",
"256 482 OFFCURVE",
"190 251 OFFCURVE",
"193 268 CURVE SMOOTH",
"194 277 OFFCURVE",
"216 432 OFFCURVE",
"206 443 CURVE SMOOTH",
"196 453 OFFCURVE",
"65 487 OFFCURVE",
"53 480 CURVE",
"53 480 OFFCURVE",
"34 438 OFFCURVE",
"50 430 CURVE SMOOTH",
"65 422 OFFCURVE",
"86 412 OFFCURVE",
"83 345 CURVE SMOOTH",
"75 211 OFFCURVE",
"49 45 OFFCURVE",
"48 33 CURVE SMOOTH",
"47 22 OFFCURVE",
"125 -3 OFFCURVE",
"171 -3 CURVE SMOOTH",
"186 -3 OFFCURVE",
"189 13 OFFCURVE",
"182 103 CURVE",
"210 259 OFFCURVE",
"293 368 OFFCURVE",
"319 378 CURVE",
"317 369 OFFCURVE",
"314 354 OFFCURVE",
"311 332 CURVE",
"285 199 OFFCURVE",
"270 45 OFFCURVE",
"269 33 CURVE SMOOTH",
"269 22 OFFCURVE",
"344 -3 OFFCURVE",
"389 -3 CURVE SMOOTH",
"405 -3 OFFCURVE",
"408 13 OFFCURVE",
"401 103 CURVE",
"429 259 OFFCURVE",
"527 368 OFFCURVE",
"551 378 CURVE",
"541 325 OFFCURVE",
"484 95 OFFCURVE",
"500 53 CURVE SMOOTH",
"512 27 OFFCURVE",
"571 -11 OFFCURVE",
"627 -2 CURVE SMOOTH",
"659 3 OFFCURVE",
"681 40 OFFCURVE",
"691 63 CURVE SMOOTH",
"697 77 OFFCURVE",
"708 93 OFFCURVE",
"698 97 CURVE SMOOTH"
);
}
);
};
guideLines = (
{
angle = -12;
position = "{715, 437}";
},
{
angle = -96;
position = "{366, 480}";
}
);
layerId = "71FD7A9F-05F5-4D76-8D4F-547475A05E4C";
name = "Regular Italic";
paths = (
{
closed = 1;
nodes = (
"611 458 OFFCURVE",
"491 479 OFFCURVE",
"481 477 CURVE",
"529 340 OFFCURVE",
"527 146 OFFCURVE",
"451 69 CURVE",
"405 102 OFFCURVE",
"388 194 OFFCURVE",
"394 265 CURVE",
"407 315 OFFCURVE",
"430 446 OFFCURVE",
"424 453 CURVE",
"417 462 OFFCURVE",
"333 476 OFFCURVE",
"301 480 CURVE",
"284 410 OFFCURVE",
"280 294 OFFCURVE",
"294 237 CURVE",
"281 141 OFFCURVE",
"259 93 OFFCURVE",
"234 67 CURVE",
"136 134 OFFCURVE",
"186 382 OFFCURVE",
"223 439 CURVE",
"192 458 OFFCURVE",
"81 484 OFFCURVE",
"54 482 CURVE",
"54 482 OFFCURVE",
"33 422 OFFCURVE",
"38 383 CURVE SMOOTH",
"38 379 OFFCURVE",
"43 377 OFFCURVE",
"47 379 CURVE SMOOTH",
"79 392 OFFCURVE",
"118 395 OFFCURVE",
"134 396 CURVE",
"68 335 OFFCURVE",
"-30 73 OFFCURVE",
"159 5 CURVE SMOOTH",
"182 -3 OFFCURVE",
"225 -6 OFFCURVE",
"231 -5 CURVE",
"266 19 OFFCURVE",
"302 55 OFFCURVE",
"328 99 CURVE",
"346 57 OFFCURVE",
"369 26 OFFCURVE",
"399 10 CURVE SMOOTH",
"418 0 OFFCURVE",
"441 -5 OFFCURVE",
"461 -4 CURVE",
"625 48 OFFCURVE",
"669 315 OFFCURVE",
"615 448 CURVE SMOOTH"
);
}
);
width = 659;
}
);
leftKerningGroup = v;
leftMetricsKey = "=i-10";
rightKerningGroup = o;
rightMetricsKey = o;
unicode = 0077;
},
{
glyphname = y;
lastChange = "2015-11-06 19:11:00 +0000";
layers = (
{
background = {
paths = (
{
closed = 1;
nodes = (
"461 461 OFFCURVE",
"395 479 OFFCURVE",
"347 479 CURVE",
"326 471 OFFCURVE",
"340 354 OFFCURVE",
"342 346 CURVE",
"332 307 OFFCURVE",
"306 93 OFFCURVE",
"306 45 CURVE SMOOTH",
"305 17 OFFCURVE",
"400 -6 OFFCURVE",
"439 0 CURVE SMOOTH",
"470 5 OFFCURVE",
"491 41 OFFCURVE",
"501 62 CURVE SMOOTH",
"509 76 OFFCURVE",
"519 92 OFFCURVE",
"509 97 CURVE SMOOTH",
"487 106 OFFCURVE",
"485 109 OFFCURVE",
"480 97 CURVE SMOOTH",
"460 59 OFFCURVE",
"446 59 OFFCURVE",
"441 65 CURVE SMOOTH",
"441 67 OFFCURVE",
"439 69 OFFCURVE",
"438 71 CURVE",
"415 111 OFFCURVE",
"458 379 OFFCURVE",
"475 444 CURVE"
);
},
{
closed = 1;
nodes = (
"99 45 OFFCURVE",
"157 -9 OFFCURVE",
"266 7 CURVE",
"313 -16 OFFCURVE",
"326 -8 OFFCURVE",
"266 -40 CURVE",
"98 -72 OFFCURVE",
"-20 37 OFFCURVE",
"1 151 CURVE SMOOTH",
"13 215 OFFCURVE",
"74 269 OFFCURVE",
"198 257 CURVE",
"377 207 OFFCURVE",
"439 -48 OFFCURVE",
"330 -174 CURVE SMOOTH",
"275 -238 OFFCURVE",
"171 -241 OFFCURVE",
"110 -216 CURVE SMOOTH",
"62 -196 OFFCURVE",
"30 -158 OFFCURVE",
"24 -137 CURVE",
"24 -137 OFFCURVE",
"41 -128 OFFCURVE",
"59 -121 CURVE",
"69 -139 OFFCURVE",
"107 -162 OFFCURVE",
"152 -156 CURVE SMOOTH",
"180 -152 OFFCURVE",
"219 -125 OFFCURVE",
"236 -85 CURVE SMOOTH",
"268 -11 OFFCURVE",
"260 140 OFFCURVE",
"181 192 CURVE",
"119 192 OFFCURVE",
"113 131 OFFCURVE",
"109 108 CURVE SMOOTH"
);
}
);
};
layerId = "71FD7A9F-05F5-4D76-8D4F-547475A05E4C";
name = "Regular Italic";
paths = (
{
closed = 1;
nodes = (
"39 -224 OFFCURVE",
"232 -314 OFFCURVE",
"344 -194 CURVE SMOOTH",
"466 -64 OFFCURVE",
"354 114 OFFCURVE",
"467 450 CURVE",
"463 457 OFFCURVE",
"353 492 OFFCURVE",
"345 474 CURVE SMOOTH",
"334 449 OFFCURVE",
"338 411 OFFCURVE",
"343 386 CURVE",
"310 175 OFFCURVE",
"327 -20 OFFCURVE",
"244 -112 CURVE SMOOTH",
"182 -180 OFFCURVE",
"108 -177 OFFCURVE",
"48 -114 CURVE",
"15 -136 LINE"
);
},
{
closed = 1;
nodes = (
"236 -5 OFFCURVE",
"327 172 OFFCURVE",
"352 287 CURVE SMOOTH",
"354 297 OFFCURVE",
"350 430 OFFCURVE",
"341 375 CURVE SMOOTH",
"316 215 OFFCURVE",
"190 89 OFFCURVE",
"187 104 CURVE",
"177 154 OFFCURVE",
"261 409 OFFCURVE",
"221 443 CURVE",
"211 454 OFFCURVE",
"89 485 OFFCURVE",
"62 480 CURVE",
"62 480 OFFCURVE",
"41 434 OFFCURVE",
"58 426 CURVE SMOOTH",
"74 418 OFFCURVE",
"110 409 OFFCURVE",
"104 345 CURVE SMOOTH",
"88 169 OFFCURVE",
"42 74 OFFCURVE",
"66 32 CURVE",
"90 15 OFFCURVE",
"137 -5 OFFCURVE",
"160 -5 CURVE SMOOTH"
);
}
);
width = 453;
}
);
leftMetricsKey = u;
rightMetricsKey = j;
unicode = 0079;
},
{
glyphname = w.001;
lastChange = "2015-11-08 17:05:08 +0000";
layers = (
{
background = {
paths = (
{
closed = 1;
nodes = (
"177 154 OFFCURVE",
"261 409 OFFCURVE",
"221 443 CURVE",
"211 454 OFFCURVE",
"89 485 OFFCURVE",
"62 480 CURVE",
"62 480 OFFCURVE",
"41 434 OFFCURVE",
"58 426 CURVE SMOOTH",
"74 418 OFFCURVE",
"110 409 OFFCURVE",
"104 345 CURVE SMOOTH",
"88 169 OFFCURVE",
"42 74 OFFCURVE",
"66 32 CURVE",
"90 15 OFFCURVE",
"137 -5 OFFCURVE",
"160 -5 CURVE SMOOTH",
"236 -5 OFFCURVE",
"322 172 OFFCURVE",
"349 287 CURVE SMOOTH",
"351 297 OFFCURVE",
"350 430 OFFCURVE",
"338 375 CURVE SMOOTH",
"304 218 OFFCURVE",
"190 89 OFFCURVE",
"187 104 CURVE"
);
},
{
closed = 1;
nodes = (
"461 461 OFFCURVE",
"395 479 OFFCURVE",
"347 479 CURVE",
"326 471 OFFCURVE",
"340 354 OFFCURVE",
"342 346 CURVE",
"332 307 OFFCURVE",
"306 93 OFFCURVE",
"306 45 CURVE SMOOTH",
"305 17 OFFCURVE",
"400 -6 OFFCURVE",
"439 0 CURVE SMOOTH",
"470 5 OFFCURVE",
"491 41 OFFCURVE",
"501 62 CURVE SMOOTH",
"509 76 OFFCURVE",
"519 92 OFFCURVE",
"509 97 CURVE SMOOTH",
"487 106 OFFCURVE",
"485 109 OFFCURVE",
"480 97 CURVE SMOOTH",
"460 59 OFFCURVE",
"446 59 OFFCURVE",
"441 65 CURVE SMOOTH",
"441 67 OFFCURVE",
"439 69 OFFCURVE",
"438 71 CURVE",
"415 111 OFFCURVE",
"458 379 OFFCURVE",
"475 444 CURVE"
);
},
{
closed = 1;
nodes = (
"584 479 OFFCURVE",
"550 484 OFFCURVE",
"515 481 CURVE",
"456 440 OFFCURVE",
"415 359 OFFCURVE",
"389 299 CURVE",
"392 317 OFFCURVE",
"410 439 OFFCURVE",
"402 447 CURVE SMOOTH",
"390 459 OFFCURVE",
"254 484 OFFCURVE",
"243 479 CURVE",
"243 479 OFFCURVE",
"224 435 OFFCURVE",
"239 425 CURVE SMOOTH",
"254 418 OFFCURVE",
"277 405 OFFCURVE",
"276 354 CURVE SMOOTH",
"275 296 OFFCURVE",
"262 145 OFFCURVE",
"249 55 CURVE SMOOTH",
"231 -67 OFFCURVE",
"205 -195 OFFCURVE",
"212 -203 CURVE SMOOTH",
"224 -213 OFFCURVE",
"357 -262 OFFCURVE",
"370 -252 CURVE",
"370 -252 OFFCURVE",
"394 -207 OFFCURVE",
"379 -201 CURVE SMOOTH",
"361 -192 OFFCURVE",
"346 -134 OFFCURVE",
"345 -86 CURVE SMOOTH",
"344 -45 OFFCURVE",
"346 -21 OFFCURVE",
"350 28 CURVE",
"395 4 OFFCURVE",
"443 -6 OFFCURVE",
"493 -4 CURVE",
"665 46 OFFCURVE",
"725 306 OFFCURVE",
"616 440 CURVE SMOOTH"
);
},
{
closed = 1;
nodes = (
"474 63 LINE SMOOTH",
"474 63 OFFCURVE",
"416 68 OFFCURVE",
"367 138 CURVE",
"372 168 LINE",
"380 226 OFFCURVE",
"475 366 OFFCURVE",
"493 372 CURVE",
"504 367 OFFCURVE",
"514 354 OFFCURVE",
"523 332 CURVE SMOOTH",
"556 250 OFFCURVE",
"552 113 OFFCURVE",
"474 63 CURVE"
);
}
);
};
guideLines = (
{
angle = -12;
position = "{710, 437}";
}
);
layerId = "71FD7A9F-05F5-4D76-8D4F-547475A05E4C";
name = "Regular Italic";
paths = (
{
closed = 1;
nodes = (
"635 471 OFFCURVE",
"524 417 OFFCURVE",
"514 417 CURVE",
"556 337 OFFCURVE",
"566 129 OFFCURVE",
"474 63 CURVE",
"437 91 OFFCURVE",
"420 125 OFFCURVE",
"431 246 CURVE",
"436 302 OFFCURVE",
"467 445 OFFCURVE",
"461 452 CURVE",
"454 461 OFFCURVE",
"379 475 OFFCURVE",
"347 479 CURVE",
"326 481 OFFCURVE",
"311 373 OFFCURVE",
"322 282 CURVE",
"303 193 OFFCURVE",
"227 93 OFFCURVE",
"198 93 CURVE",
"161 123 OFFCURVE",
"250 395 OFFCURVE",
"228 440 CURVE",
"197 465 OFFCURVE",
"89 482 OFFCURVE",
"62 480 CURVE",
"62 480 OFFCURVE",
"44 450 OFFCURVE",
"58 426 CURVE",
"91 417 OFFCURVE",
"106 391 OFFCURVE",
"106 365 CURVE SMOOTH",
"106 261 OFFCURVE",
"7 47 OFFCURVE",
"117 11 CURVE SMOOTH",
"139 4 OFFCURVE",
"161 -1 OFFCURVE",
"195 -1 CURVE",
"248 23 OFFCURVE",
"289 92 OFFCURVE",
"315 136 CURVE",
"316 51 OFFCURVE",
"360 30 OFFCURVE",
"388 15 CURVE SMOOTH",
"405 6 OFFCURVE",
"465 -4 OFFCURVE",
"485 -4 CURVE",
"688 47 OFFCURVE",
"706 341 OFFCURVE",
"641 461 CURVE SMOOTH"
);
}
);
width = 701;
}
);
},
